<?xml version="1.0" standalone="no"?>
<!DOCTYPE svg PUBLIC "-//W3C//DTD SVG 1.1//EN" "http://www.w3.org/Graphics/SVG/1.1/DTD/svg11.dtd" >
<!--
2013-9-30: Created.
-->
<svg>
<metadata>
Created by iconfont
</metadata>
<defs>

<font id="iconfont" horiz-adv-x="1024" >
  <font-face
    font-family="iconfont"
    font-weight="500"
    font-stretch="normal"
    units-per-em="1024"
    ascent="896"
    descent="-128"
  />
    <missing-glyph />
    
    <glyph glyph-name="txt" unicode="&#59165;" d="M635 7.5c-41.5 4.3-63 13-78.6 25.9l-1.1 1.1c-13.5 14.6-20.5 46.9-20.5 97.6V674.4c0 7.6 5.9 14 14 14h87.3c78.2 0 83-10.8 107.7-32.9 26.9-21.1 38.8-31.9 52.8-102 1.6-6.5 7-11.3 14-11.3h5.4c8.1 0 14.5 6.5 14 14.6l-1.6 232.6H78.5c-7.6 0-13.5-5.9-14-13.5l-1.1-218.5c-0.5-8.1 5.9-14.6 14-14.6h5.4c7 0 12.4 4.8 14 11.3 14 69.6 25.9 80.4 52.8 101.4l0.5 0.5c24.3 21.6 29.6 32.4 107.3 32.4h87.3c7.6 0 14-5.9 14-14v-525.6c0-60.4-6.5-96.6-20-108.4-1.1-0.5-1.6-1.6-2.2-2.2-11.9-16.1-31.8-26.4-73.2-30.7-7.6-0.5-13-6.5-13-14 0-7.6 5.9-14 14-14h369.6c7.6 0 14 5.9 14 14 0.1 7-5.3 13.5-12.9 14z m324.3 217.6l-0.7 99H638.4c-3.2 0-5.7-2.6-6-5.7l-0.5-93c-0.3-3.5 2.6-6.2 6-6.2h2.3c3 0 5.3 2.1 6 4.8 6 29.6 11 34.2 22.5 43.1l0.3 0.3c10.4 9.2 12.7 13.8 45.8 13.8h37.3c3.2 0 6-2.6 6-5.9v-223.7c0-25.7-2.7-41-8.5-46.1-0.5-0.3-0.7-0.7-0.9-0.9-5-6.9-13.6-11.2-31.3-13-3.2-0.3-5.6-2.7-5.6-5.9s2.6-5.9 6-5.9h157.8c3.2 0 6 2.6 6 5.9 0 3-2.3 5.7-5.6 5.9-17.7 1.8-26.9 5.5-33.6 11l-0.5 0.5c-5.7 6.2-8.8 20-8.8 41.6V275.20000000000005c0 3.2 2.6 5.9 6 5.9h37.3c33.4 0 35.4-4.6 46-14 11.5-8.9 16.6-13.6 22.5-43.4 0.7-2.7 3-4.8 6-4.8h2.3c3.6 0 6.4 2.8 6.1 6.2z"  horiz-adv-x="1024" />

    
    <glyph glyph-name="excel" unicode="&#59166;" d="M921.18736592 557.96167111h-162.38364445v-100.92544h162.38364445v100.92544z m0-128.45056h-162.38364445v-100.96184889h162.38364445V429.51111111z m0 256.90112h-162.38364445v-100.92544h162.38364445V686.41223111z m0-509.21472h-162.38364445v-100.96184889h162.38364445V177.19751111000005z m74.63822222 610.14016H605.34025481a33.86026667 33.86026667 0 0 1-13.18001778-2.69425778V893.72444445L12.89481481 778.16263111v-788.32526222L592.16023703-125.72444444999996v103.61969778a33.86026667 33.86026667 0 0 1 13.18001778-2.69425778h390.48533333c19.40593778 0 35.13457778 16.49322667 35.13457778 36.70016V750.63751111c-0.03640889 20.24334222-15.72864 36.70016-35.13457778 36.70016z m-592.37262222-573.54922666l-70.19633778 4.58752-52.61084444 133.11089777-57.05272889-123.97226667-65.86368 4.58752 83.37635556 151.53379556-74.56540445 165.15072 65.79086222 4.58752 43.87271111-123.86304h8.73813334l48.27818666 133.07448889 70.19633778 4.55111111-87.74542222-174.32576 87.74542222-179.02250666z m583.59808-192.67584H592.08741925v55.05024h131.61813334V177.19751111000005h-131.61813334v22.86478222h131.61813334V300.98773332999997h-131.61813334v27.52512h131.61813334V429.51111111h-131.61813334v27.56152889h131.61813334v100.92544h-131.61813334v27.48871111h131.61813334V686.41223111h-131.61813334V741.46247111h394.96362667v-720.34986666z m-65.86368 279.91153777h-162.38364445v-100.92544h162.38364445V300.98773332999997z"  horiz-adv-x="1024" />

    
    <glyph glyph-name="Audio" unicode="&#59167;" d="M916.7872 891.1872l-487.0144-135.168c-59.0848-15.2576-106.8032-71.0656-106.8032-124.7232v-466.1248s-35.328 21.6064-113.8688 11.4688C93.5936 161.68960000000004 0 81.30560000000003 0-2.969600000000014S93.5936-138.95679999999993 209.1008-124.10879999999997c115.5072 14.7456 200.0896 92.7744 200.0896 177.152V451.072c0 37.376 49.5616 53.3504 49.5616 53.3504l430.6944 122.4704s47.616 14.4384 47.616-25.4976V281.6s-43.9296 22.9376-122.4704 14.2336c-115.4048-12.6976-209.1008-91.3408-209.1008-175.616s93.5936-137.728 209.1008-125.0304c115.5072 12.6976 209.1008 91.3408 209.1008 175.7184V821.8624c-0.1024 53.5552-47.9232 84.5824-106.9056 69.3248z m0 0"  horiz-adv-x="1024" />

    
    <glyph glyph-name="pdf" unicode="&#59168;" d="M462.891886 820.165486c-1.521371 0-3.525486-0.263314-6.231772-0.965486-21.621029-5.602743-27.0336-16.340114-29.652114-27.092114-8.382171-34.260114 8.411429-88.356571 37.931886-149.065143 25.980343 96.402286 17.525029 160.329143 2.954971 175.147886-0.863086 0.877714-1.9456 1.974857-5.002971 1.974857m21.650285-362.978743c-23.215543-65.345829-52.779886-142.555429-87.1424-220.233143-4.681143-10.576457-9.333029-20.918857-13.970285-31.0272a2491.333486 2491.333486 0 0 0 56.232228 21.065143A2521.746286 2521.746286 0 0 0 615.292343 283.062857a2004.289829 2004.289829 0 0 0-130.7648 174.123886m288.5632-215.303314c52.589714-29.988571 117.613714-50.176 152.210286-38.443886 9.245257 3.130514 19.207314 9.128229 23.113142 29.886171 1.199543 6.465829 2.077257 11.117714-21.123657 16.223086-33.265371 7.314286-87.157029 4.242286-154.199771-7.665371M82.300343-45.9776c10.532571-5.675886 20.655543-5.895314 33.411657-0.877714 18.753829 7.431314 49.854171 29.315657 92.789029 90.945828-73.6256-39.497143-115.594971-71.928686-126.200686-90.068114m16.603428-80.296229c-20.260571 0-39.965257 5.632-58.324114 16.7936C6.568229-88.766171-4.637257-54.037943 11.351771-18.826971c28.818286 63.488 154.741029 131.306057 266.620343 181.013942a2013.813029 2013.813029 0 0 1 50.058972 105.442743c41.7792 94.485943 78.979657 195.364571 104.901485 272.530286-56.949029 99.196343-96.607086 200.367543-79.623314 269.955657 10.3424 42.349714 39.497143 70.890057 84.304457 82.505143 32.621714 8.469943 62.595657 0.906971 84.3776-21.255314 41.545143-42.276571 47.074743-136.923429 14.774857-253.162057-3.905829-14.087314-10.912914-37.551543-20.626285-67.774172 59.450514-97.557943 134.334171-195.349943 180.736-246.637714 98.289371 22.454857 199.299657 35.547429 261.12 16.003657 49.546971-15.623314 73.8304-53.189486 64.965485-100.4544-8.118857-43.329829-34.172343-74.488686-73.347657-87.742171-84.128914-28.437943-214.147657 32.841143-276.567771 88.429714-70.948571-17.993143-150.030629-42.788571-231.541029-73.142857a2350.036114 2350.036114 0 0 1-108.661028-43.432229c-66.677029-124.386743-129.053257-197.046857-189.2352-220.832914-15.008914-5.9392-30.017829-8.894171-44.704915-8.894172"  horiz-adv-x="1024" />

    
    <glyph glyph-name="Video" unicode="&#59169;" d="M484.736 703.936L320.810667 896H135.082667l163.925333-192.064h185.728z m482.24 0L803.050667 896h-185.728l164.053333-192.064h185.6z m-241.109333 0L561.92 896h-185.728l163.925333-192.064h185.728zM1036.906667 896H858.453333l164.053334-192.064H1109.333333V823.978667C1109.226667 864.7893329999999 1077.888 896 1036.906667 896zM79.573333 896h-7.253333C31.445333 896 0 864.7893329999999 0 823.978667v-120.042667h243.498667L79.573333 896zM0-58.36800000000005C0-97.83466699999997 31.338667-128 72.32-128h964.693333C1077.973333-128 1109.333333-97.83466699999997 1109.333333-58.36800000000005V661.333333H0v-719.701333zM460.16 448c9.152 0 20.16-1.664 29.290667-6.741333l208.426666-111.146667c25.258667-12.394667 34.816-41.301333 21.354667-64.554667a49.941333 49.941333 0 0 0-21.333333-19.648l-208.448-111.168c-9.130667-5.077333-18.261333-6.741333-29.269334-6.741333C430.912 128 405.333333 141.482667 405.333333 170.09066700000005V405.909333C405.333333 434.517333 430.912 448 460.16 448z"  horiz-adv-x="1109" />

    
    <glyph glyph-name="ppt" unicode="&#59170;" d="M442 469.3c-15.2-170.7-200.3-156.7-200.3-156.7v-153.7h-88.4V607.8s138.4 7.7 183.7 0c112.4-19.1 105-138.5 105-138.5z m-207.2 68.6V384s110 0 106.3 76.9c-2.9 61.5-31.8 70-106.3 77zM973 783.6H576V896L0 785.5v-803L575.9-128V-16.200000000000045H945c22.4 0 44.7 0 67.1 10.2 11.2 30.6 11.2 56 11.2 81.5V737.7c5.6 25.5-22.4 51-50.3 45.9z m-153.1-250c-5.1 81.5-71.3 152.8-152.8 152.8v-157.9c52.2 1.5 106.6 3.2 152.8 5.1z m167.8-509.1H570.6v96.8h305.9v45.9H570.6v61.1h305.9v45.9H570.6v71.3c50.1-15.3 105.7-15.3 150.2 15.3 50.1 25.5 72.3 76.4 77.9 127.4H631.8V640.9c-22.2-5.1-38.9-10.2-61.2-10.2V747.9h417.1v-723.4z"  horiz-adv-x="1024" />

    
    <glyph glyph-name="word" unicode="&#59171;" d="M931.328 733.2864H532.1728V34.816h399.1552c13.824 0 24.9856 11.1616 24.9856 24.9856V708.3008c0 13.824-11.1616 24.9856-24.9856 24.9856zM532.1728 608.4608h349.2864v-49.8688H532.1728v49.8688z m0-99.7376h349.2864v-49.8688H532.1728v49.8688z m0-99.84h349.2864v-49.8688H532.1728v49.8688z m0-99.7376h349.2864v-49.8688H532.1728v49.8688z m0-99.7376h349.2864v-49.8688H532.1728v49.8688zM582.144-65.024L58.2656 34.7136V733.2864l523.8784 99.7376v-898.048zM436.6336 209.1008h-67.7888l-44.9536 224.256c-2.4576 11.8784-3.8912 24.8832-4.3008 39.3216h-0.8192c-1.024-15.872-2.7648-28.9792-4.9152-39.3216l-46.1824-224.256h-70.5536l-71.3728 349.5936h66.7648l38.2976-232.6528c1.536-10.0352 2.7648-23.4496 3.584-40.0384h1.024c0.512 12.3904 2.4576 26.2144 5.5296 41.0624l49.152 231.7312h65.4336l44.544-234.5984c1.536-8.704 2.9696-21.0944 4.1984-37.6832h0.8192c0.512 12.8 1.8432 25.8048 3.9936 39.0144l37.4784 233.2672h61.5424l-71.4752-349.696z"  horiz-adv-x="1024" />

    
    <glyph glyph-name="IssueWL" unicode="&#59163;" d="M704 768V832H320v-64H128v-832h128v64h-64V704h128v-64h384v64h128v-704h-64v-64h128V768H704z m-64-64H384V768h256v-64z m-96-643.2V192h-64v-131.2l-73.6 73.6-44.8-44.8 150.4-150.4 150.4 150.4-44.8 44.8-73.6-73.6z m-32 273.6l-105.6 105.6-44.8-44.8 150.4-150.4 246.4 246.4-44.8 44.8L512 334.4z"  horiz-adv-x="1024" />

    
    <glyph glyph-name="IssueCMD" unicode="&#59164;" d="M914.292829 226.30399999999997h-219.415273v73.122909h219.415273a36.584727 36.584727 0 0 1 36.584727 36.584727V701.765818a36.631273 36.631273 0 0 1-36.584727 36.584727H109.708102a36.631273 36.631273 0 0 1-36.584727-36.584727v-365.707636c0-20.200727 16.384-36.584727 36.584727-36.584727h219.415273v-73.12291H109.708102A109.754182 109.754182 0 0 0 0.000465 336.01163599999995V701.765818a109.847273 109.847273 0 0 0 109.707637 109.707637h804.584727A109.847273 109.847273 0 0 0 1024.000465 701.765818v-365.707636a109.847273 109.847273 0 0 0-109.707636-109.754182zM457.123375 555.4734550000001h365.707636v-73.12291H457.123375zM384.000465 552.448v-67.072l-182.87709-92.346182V444.834909l153.041454 74.053818-153.041454 74.053818V644.747636L384.000465 552.448zM432.361193 299.61309100000005v-156.439273H310.831011l201.122909-201.169454 201.169455 201.169454h-121.483637v156.439273z"  horiz-adv-x="1024" />

    
    <glyph glyph-name="renlian" unicode="&#59162;" d="M895.104895 896h-115.255411c-7.160839 0-12.957709-5.79687-12.957709-12.957709V844.851149c0-7.160839 5.79687-12.957709 12.957709-12.957709h115.255411c35.463203 0 64.10656-28.643357 64.10656-64.10656v-115.255411c0-7.160839 5.79687-12.957709 12.957709-12.957709h38.532135c7.160839 0 12.957709 5.79687 12.957709 12.957709V768.127872c0 33.758242-13.639694 66.493506-37.509158 90.36297-24.551449 23.869464-57.286713 37.509158-91.044955 37.509158z m-767.232767 0C57.286713 896 0 838.713287 0 768.127872v-115.255411c0-6.819847 5.79687-12.616717 12.957709-12.616717H51.148851c7.160839 0 12.957709 5.79687 12.957709 12.957709V768.127872c0 17.049617 6.819847 33.076257 18.754579 45.351981s28.302364 18.754579 45.351981 18.754579h115.255411c7.160839 0 12.957709 5.79687 12.957709 12.957709V883.042291C255.744256 890.20313 249.947386 896 243.127539 896H127.872128z m831.339327-780.190476v-115.255411c0-35.463203-28.643357-64.10656-64.10656-64.106561h-115.255411c-7.160839 0-12.957709-5.79687-12.957709-12.957709v-38.532134c0-7.160839 5.79687-12.957709 12.957709-12.957709h115.255411c33.758242 0 66.493506 13.639694 90.36297 37.509158s37.509158 56.604729 37.509158 90.36297V115.127539c0 7.160839-5.79687 12.957709-12.957709 12.957709H971.828172c-7.160839 0.681985-12.616717-5.114885-12.616717-12.275724zM127.872128-63.211455c-35.463203 0-64.10656 28.643357-64.10656 64.10656v115.255411c0 7.160839-5.79687 12.957709-12.957709 12.957709H12.957709c-7.160839 0-12.957709-5.79687-12.957709-12.957709v-115.255411c0-33.758242 13.639694-66.493506 37.509158-90.36297s56.604729-37.509158 90.36297-37.509158h115.255411c7.160839 0 12.957709 5.79687 12.957709 12.957709V-75.828172c0 7.160839-5.79687 12.957709-12.957709 12.957709H127.872128zM511.488511 736.074592c-84.907093-0.340992-159.584416-57.286713-181.748917-139.124875-22.505495-82.179154 12.957709-169.132201 85.93007-212.438228-97.182817-31.712288-171.178155-111.504496-195.729604-210.733267-10.570763-32.735265-4.773893-68.539461 15.344655-96.500833s52.512821-44.329004 86.953047-44.329004h378.501499c34.440226 0 66.834499 16.708625 86.953047 44.329004 20.118548 27.961372 25.915418 63.765568 15.344655 96.500833-24.551449 99.228771-98.546787 178.679987-195.388611 210.733267 73.313353 43.306027 108.435564 130.259074 85.93007 212.438228-22.505495 81.838162-97.182817 139.124875-182.089911 139.124875z"  horiz-adv-x="1024" />

    
    <glyph glyph-name="zhiwen" unicode="&#59161;" d="M176.85018 696.266116a31.970356 31.970356 0 0 0-22.916041 9.62021 31.819451 31.819451 0 0 0 0.560506 45.120671C250.659018 844.503582 377.624233 896 511.999973 896c127.73052 0 250.066176-47.147113 344.473582-132.753509a31.835619 31.835619 0 0 0 2.134231-45.077555 32.105093 32.105093 0 0 0-45.223071-2.123453C730.791035 790.932216 623.745315 832.188635 511.999973 832.188635c-117.576752 0-228.653798-45.055998-312.805036-126.857425a31.954188 31.954188 0 0 0-22.350146-9.070484zM33.242272 318.85746200000006c-16.637304 0-30.687662 12.826947-31.900293 29.625935A523.016057 523.016057 0 0 0 0 385.735437C0 479.393706 25.697009 570.971638 74.288501 650.595718c9.199831 15.058189 28.892967 19.817094 43.994272 10.681936a31.851788 31.851788 0 0 0 10.714273-43.848755c-42.501387-69.621217-64.964712-149.746518-64.964713-231.693462 0-10.832842 0.393432-21.827367 1.180295-32.687156 1.261137-17.580462-12.002357-32.84884-29.647493-34.104587-0.776084-0.053895-1.557558-0.080842-2.322863-0.080843z m937.978561-104.642016a31.916461 31.916461 0 0 0-9.339957 1.390485c-16.912168 5.141558-26.446146 22.964546-21.29381 39.822819a445.132777 445.132777 0 0 1 19.380547 130.306687c0 88.43048-25.89642 173.896749-74.859786 247.161251a31.841009 31.841009 0 0 0 8.898021 44.247576c14.713262 9.754947 34.584251 5.804463 44.393092-8.865684C994.395569 584.493827 1023.999946 486.798843 1023.999946 385.740827a508.906415 508.906415 0 0 0-22.166904-148.91115c-4.203789-13.748547-16.89061-22.608841-30.612209-22.608841zM265.701039 284.645085a31.970356 31.970356 0 0 0-21.072841 7.895578 31.873346 31.873346 0 0 0-7.949474 37.489177c1.929431 9.151326 4.581052 38.949724 4.581053 56.664924 0.592842 148.30214 122.033846 268.85927 270.734807 268.85927 26.246735 0 52.186271-3.740295 77.107196-11.113094 16.949894-5.01221 26.618609-22.770525 21.58484-39.666525-5.028379-16.879831-22.82442-26.526988-39.80665-21.514777A207.031231 207.031231 0 0 1 511.999973 591.737279c-113.529257 0-206.255147-92.036037-206.702473-205.171863 0-21.967494-1.509053-75.096922-15.489347-91.028205a31.975746 31.975746 0 0 0-24.101725-10.886737z m355.015391-397.700021a31.964967 31.964967 0 0 0-16.648083 4.672673 31.835619 31.835619 0 0 0-10.649599 43.859535c37.510735 61.245976 67.400754 126.383151 88.861637 193.611442 0.404211 1.261137 39.289261 124.459109 36.422061 255.96226-0.528168 23.918483-3.395368 43.029556-9.302231 61.951997a204.115526 204.115526 0 0 1-40.313261 72.612375 31.835619 31.835619 0 0 0 3.503158 44.991324 32.094314 32.094314 0 0 0 45.142229-3.4816c24.090946-28.052209 41.86004-60.060292 52.81145-95.167321 7.760842-24.850862 11.517305-49.372966 12.17482-79.52168 3.109726-142.513845-37.699366-271.338428-39.445555-276.749459-22.986104-72.041091-55.021134-141.85094-95.205048-207.457a32.013472 32.013472 0 0 0-27.351578-15.284546zM74.751996 148.46925999999996a31.93263 31.93263 0 0 0-19.870988 6.898526 31.841009 31.841009 0 0 0-5.206232 44.82964C107.859531 273.35413800000003 120.077467 342.66815499999996 120.077467 387.923564c0.937768 157.41035 95.663153 298.075605 241.324451 358.534718 16.265431 6.763789 35.063914-0.905432 41.86004-17.187031 6.806905-16.260041-0.91621-34.950735-17.246315-41.725303C264.14887 636.9603500000001 184.896664 519.275809 184.104411 387.729543c0-55.209766-14.621641-139.614308-84.248248-227.166304a32.02964 32.02964 0 0 0-25.114946-12.093979z m723.208046-175.492032a31.959577 31.959577 0 0 0-15.467788 3.993599 31.851788 31.851788 0 0 0-12.525137 43.369093c46.414145 83.590732 69.944586 206.5354 69.944586 365.400907 0 17.623578 14.335999 31.905683 32.013472 31.905682 17.677473 0 32.013472-14.282105 32.013472-31.905682 0-169.795359-26.214399-303.130931-77.942564-396.298758a32.024251 32.024251 0 0 0-28.036041-16.464841z m53.544418 500.240142a32.02964 32.02964 0 0 0-30.197219 21.299198C775.124843 624.909488 650.832808 712.5315459999999 511.999973 712.5315459999999c-6.44581 0-12.870062-0.194021-19.24042-0.549726-17.70442-0.964716-32.767998 12.455073-33.77583 30.040925-1.01861 17.596631 12.48741 32.660209 30.137935 33.66804 174.726728 9.965136 334.847982-96.962016 392.569243-259.934302a31.889514 31.889514 0 0 0-19.536841-40.706692 31.851788 31.851788 0 0 0-10.654989-1.832421zM140.71915 46.92080299999998a31.997304 31.997304 0 0 0-25.228124 12.234104 31.841009 31.841009 0 0 0 5.475704 44.797303c42.355871 33.048251 59.726144 74.854396 73.684881 108.446984 6.7584 16.27621 25.519157 24.020883 41.833092 17.267873 16.335494-6.736842 24.101725-25.411367 17.321768-41.692967-15.036631-36.190314-37.76943-90.888079-93.372627-134.27334a31.92724 31.92724 0 0 0-19.714694-6.779957zM467.709281-127.99994600000002a31.948798 31.948798 0 0 0-19.924884 6.947031 31.83023 31.83023 0 0 0-5.103831 44.835029c25.459872 31.867956 62.210691 83.870985 92.720501 150.55494 28.612714 62.555618 47.227955 126.049004 56.885891 194.128832 2.489937 17.451115 18.679915 29.674441 36.190314 27.125219 17.50501-2.462989 29.690609-18.609852 27.216841-36.055577-10.54181-74.223828-30.827788-143.467782-62.02745-211.660789-33.199156-72.596207-73.189049-129.16412-100.890942-163.839991A31.997304 31.997304 0 0 0 467.703891-127.99994600000002z m-132.823572 30.331956a31.948798 31.948798 0 0 0-21.746525 8.49381 31.82484 31.82484 0 0 0-1.735411 45.088335c58.448839 62.922102 133.470309 167.666517 158.919402 309.28032a574.372349 574.372349 0 0 1 8.660884 119.84572c-0.576674 17.612799 13.30122 32.353009 30.973304 32.918904 17.596631 0.668295 32.455409-13.258105 33.021303-30.865514a637.898072 637.898072 0 0 0-9.630989-133.146941c-22.290862-124.119572-82.79309-242.175987-174.963864-341.385413a31.964967 31.964967 0 0 0-23.498104-10.229221z m-112.386689 59.715365c-8.143494 0-16.27621 3.072-22.527999 9.221389a31.82484 31.82484 0 0 0-0.226358 45.126061c46.133892 46.457261 111.184836 120.476288 143.316877 226.395609 15.494736 51.059871 16.292378 96.525469 17.003788 136.623151l0.129348 6.930863c-0.010779 82.825427 68.090607 150.695066 151.799908 150.695066 83.71469 0 151.821466-67.869639 151.821465-151.293298 0-17.634357-14.335999-31.905683-32.013472-31.905682-17.677473 0-32.018861 14.271326-32.018861 31.905682 0 48.235787-39.380882 87.476543-87.789132 87.476543-48.40825 0-87.778353-39.240756-87.778354-87.476543l-0.129347-7.448252c-0.749137-42.075619-1.670737-94.423574-19.725473-153.977255-36.265767-119.506183-108.172121-201.51241-159.113423-252.814808a31.970356 31.970356 0 0 0-22.748967-9.458526z"  horiz-adv-x="1024" />

    
    <glyph glyph-name="pc1" unicode="&#59160;" d="M830.817519-42.531176l-56.474632 57.580836a10.829156 10.829156 0 0 0-3.085727 7.568765v40.754889a16.06907 16.06907 0 0 1-16.243734 15.777964H540.409825A16.06907 16.06907 0 0 1 523.991427 63.431535v-40.754889a10.770935 10.770935 0 0 0-3.085727-7.510544l-56.41641-57.580836a18.281479 18.281479 0 0 1 13.740219-30.973715h338.731348a18.281479 18.281479 0 0 1 13.856662 30.857273zM296.22982 743.514186h-232.885079A62.413201 62.413201 0 0 1 0 682.207189v-748.900192a62.413201 62.413201 0 0 1 63.170078-61.248776h232.885078a62.413201 62.413201 0 0 1 63.170078 61.248776V682.207189a62.413201 62.413201 0 0 1-62.995414 61.306997zM108.582668 57.201859a32.720354 32.720354 0 1 0 33.710115 32.662132 33.186124 33.186124 0 0 0-33.710115-32.662132z m189.102684 437.765727A24.278269 24.278269 0 0 0 273.115976 470.980423H86.342143a24.278269 24.278269 0 0 0-24.569376 23.812499V534.441607a24.278269 24.278269 0 0 0 24.569376 23.87072h186.773833a24.278269 24.278269 0 0 0 24.569376-23.812499z m0 130.70675a24.278269 24.278269 0 0 0-24.569376-23.812499H86.342143a24.278269 24.278269 0 0 0-24.569376 23.812499v39.532243a24.278269 24.278269 0 0 0 24.569376 23.812499h186.773833a24.278269 24.278269 0 0 0 24.569376-23.812499zM1104.049937 895.995692H191.431535a59.676801 59.676801 0 0 1-60.375457-58.570598v-17.466381h74.29034a29.110635 29.110635 0 0 0 22.589853 10.887378h839.60893a29.110635 29.110635 0 0 0 29.459963-28.586644v-509.261446a29.110635 29.110635 0 0 0-29.459963-28.586643H434.330672V133.297058h669.544602a59.676801 59.676801 0 0 1 60.55012 58.68704V837.425094A59.676801 59.676801 0 0 1 1104.049937 895.995692z m-456.338311-729.861837a32.720354 32.720354 0 1 0 33.710115 32.662132 33.186124 33.186124 0 0 0-33.710115-32.662132z"  horiz-adv-x="1164" />

    
    <glyph glyph-name="Windows" unicode="&#59159;" d="M456 412V735.9l-335.9-72V412H456zM512 412h391.8V831.8l-391.8-84V412zM456 356H120.2v-251.9l335.9-72V356zM512 356v-335.9l391.8-84V356H512z"  horiz-adv-x="1024" />

    
    <glyph glyph-name="amicrophone" unicode="&#59158;" d="M712.78925 698.4534160000001v-314.794536c0-54.186644-19.967992-100.607958-59.221309-138.794609-39.253317-38.229317-86.82663-57.898643-142.463941-57.898642-55.466644 0-102.527957 19.029325-142.46394 57.898642-39.253317 38.698651-59.178642 84.607965-59.178642 138.794609V698.4534160000001c0 54.186644 19.967992 100.607958 59.178642 138.794608C407.893377 875.946675 455.509357 895.146667 511.146667 895.146667c55.423977 0 102.527957-19.029325 142.421274-57.898643 39.893317-38.82665 59.221309-84.479965 59.221309-138.794608zM873.898516 462.634847v-78.506634c0-90.282629-30.93332-169.258596-92.757295-236.330568-61.823974-67.029305-138.239942-105.258623-229.290571-115.071952v-81.066633h161.279933a39.253317 39.253317 0 0 0 28.287988-11.946662 38.143984 38.143984 0 0 0 0-55.76531 39.253317 39.253317 0 0 0-28.330655-11.946661H310.101417a39.253317 39.253317 0 0 0-28.287988 11.946661 38.143984 38.143984 0 0 0 0 55.76531 39.253317 39.253317 0 0 0 28.287988 11.946662h161.279933v80.426633c-91.093295 9.813329-167.509264 48.042647-229.333238 115.071952C180.266805 214.22961699999996 149.333484 292.73625100000004 149.333484 383.48821399999997v78.506634c0 10.794662 4.266665 20.138658 12.117329 27.903988a39.253317 39.253317 0 0 0 28.287988 11.946662 39.253317 39.253317 0 0 0 28.287988-11.946662c7.850663-7.76533 12.117328-17.06666 12.117328-27.903988v-78.506634c0-75.946635 27.775988-140.885275 82.773299-194.559919 54.911977-53.674644 121.471949-81.066633 199.50925-81.066633 77.994634 0 143.914607 26.751989 199.509251 81.066633 54.99731 53.674644 82.773299 118.613284 82.773299 194.559919v78.506634c0 10.794662 4.266665 20.138658 12.117328 27.903988a39.253317 39.253317 0 0 0 28.287988 11.946662 39.253317 39.253317 0 0 0 28.287988-11.946662c6.86933-7.12533 10.495996-16.29866 10.495996-27.263989z"  horiz-adv-x="1024" />

    
    <glyph glyph-name="tingzhizhibo" unicode="&#59157;" d="M928 684.8h-262.4l115.2 115.2c12.8 12.8 12.8 32 0 44.8s-32 12.8-44.8 0L582.4 697.6c0-6.4-6.4-6.4-6.4-12.8H435.2v6.4L281.6 851.2c-12.8 12.8-32 12.8-44.8 0s-12.8-32 0-44.8l108.8-121.6H96C44.8 684.8 0 640 0 582.4v-576c0-57.6 44.8-102.4 96-102.4h832c51.2 0 96 44.8 96 102.4v576c0 57.6-44.8 102.4-96 102.4z m32-678.4c0-19.2-12.8-32-32-32h-832c-19.2 0-32 12.8-32 32v576c0 19.2 12.8 32 32 32h832c19.2 0 32-12.8 32-32v-576zM614.4 428.8H409.6c-12.8 0-25.6-12.8-25.6-25.6v-204.8c0-12.8 12.8-25.6 25.6-25.6h204.8c12.8 0 25.6 12.8 25.6 25.6V403.2c0 12.8-12.8 25.6-25.6 25.6z"  horiz-adv-x="1024" />

    
    <glyph glyph-name="upload" unicode="&#59156;" d="M158.43570725-37.29453510999997c-77.05091792 0-121.16878222 44.1178643-121.16878222 121.16878222V295.76427141c0 13.04894578 10.5634323 23.61237808 23.61237808 23.61237807 35.41856711 0 71.45851259 4.97102697 71.45851259-28.58340503v-201.326592c0-16.777216 13.67032415-29.82616178 29.82616178-29.82616178h699.67204504c16.777216 0 30.44754015 13.67032415 30.44754015 30.44754015V296.38564978c0 13.04894578 10.5634323 23.61237808 23.61237808 23.61237807 35.41856711 0 71.45851259 4.97102697 71.45851258-28.58340503v-212.51140267c0-77.05091792-37.90408059-114.95499852-114.95499851-114.95499852l-713.96374757-1.24275674zM559.22475615 762.41942755v-531.89988503c0-26.09789155-21.12686459-28.58340503-47.22475615-28.58340504-26.09789155 0-47.22475615 2.48551348-47.22475615 28.58340504V762.41942755c0 26.09789155 21.12686459 47.22475615 47.22475615 47.22475615s47.22475615-21.12686459 47.22475615-47.22475615zM509.51448652 826.4213996999999c12.42756741 0 24.85513482-4.97102697 33.554432-13.67032415l228.04586193-227.42448355c18.01997275-18.01997275 9.94205392-41.63235082-8.6992972-60.27370192s-42.25372918-22.9909997-58.4095668-6.83516208L509.51448652 712.70915792 325.58648889 528.7811603c-21.74824297-21.74824297-45.36062103-21.74824297-67.108864 0s-22.9909997 44.1178643 0 67.108864l217.48242963 217.48242962c8.69929718 8.69929718 21.12686459 13.67032415 33.554432 13.67032416v-0.62137838z"  horiz-adv-x="1024" />

    
    <glyph glyph-name="yunupload" unicode="&#59155;" d="M812.37333333 547.8399999999999C785.06666667 687.7866666699999 662.18666667 793.6 512 793.6s-273.06666667-105.81333333-300.37333333-245.76C109.22666667 520.53333333 34.13333333 424.96 34.13333333 315.73333333000005c0-133.12 105.81333333-238.93333333 238.93333334-238.93333333h34.13333333v68.26666667h-34.13333333c-95.57333333 0-170.66666667 75.09333333-170.66666667 170.66666666s75.09333333 170.66666667 170.66666667 170.66666667c0 133.12 105.81333333 238.93333333 238.93333333 238.93333333s238.93333333-105.81333333 238.93333333-238.93333333c95.57333333 0 170.66666667-75.09333333 170.66666667-170.66666667s-75.09333333-170.66666667-170.66666667-170.66666666h-34.13333333v-68.26666667h34.13333333c133.12 0 238.93333333 105.81333333 238.93333334 238.93333333 0 109.22666667-75.09333333 204.8-177.49333334 232.10666667zM542.72 407.89333333c-13.65333333 10.24-27.30666667 13.65333333-40.96 6.82666667-3.41333333 0-6.82666667-3.41333333-10.24-6.82666667l-102.4-98.98666666c-13.65333333-13.65333333-13.65333333-34.13333333 0-47.78666667 13.65333333-13.65333333 37.54666667-13.65333333 51.2 0l40.96 37.54666667v-290.13333334c0-20.48 17.06666667-34.13333333 34.13333333-34.13333333 20.48 0 34.13333333 17.06666667 34.13333334 34.13333333V298.66666667000004l40.96-37.54666667c13.65333333-13.65333333 37.54666667-13.65333333 51.2 0 13.65333333 13.65333333 13.65333333 34.13333333 0 47.78666667l-98.98666667 98.98666666z"  horiz-adv-x="1024" />

    
    <glyph glyph-name="lupload" unicode="&#59297;" d="M521.3206752 451.42926187v-263.01781334a27.96202667 27.96202667 0 0 0-55.88764373 0v263.01781334l-44.52807147-48.9699552a27.92561813 27.92561813 0 1 0-41.36049813 37.57397333l93.13393813 102.45461333a27.8528 27.8528 0 0 0 41.36049813 0l93.13393707-102.45461333a27.96202667 27.96202667 0 0 0-41.32408853-37.57397333l-44.52807147 48.9699552zM196.22570667 728.61013333c-15.9106848 0-28.83584-10.9954848-28.83584-24.53959146V63.96586666999997c0-13.54410667 12.9251552-24.53959147 28.83584-24.53959147h622.22791146c15.9106848 0 28.83584 10.9954848 28.83584 24.53959147V612.28373333c0 13.50769813-12.9251552 24.53959147-28.83584 24.53959147H525.83537813a85.81575147 85.81575147 0 0 0-66.99235626 31.16600853l-40.85077334 50.02581334a30.6198752 30.6198752 0 0 1-23.66577706 10.59498666h-198.06435627zM818.45361813-16.49777813000003H196.22570667C149.51310187-16.49777813000003 111.50222187 19.58343147000005 111.50222187 63.929458129999944V704.03413333C111.50222187 748.45297813 149.51310187 784.49777813 196.22570667 784.49777813h198.0643552c26.43285333 0 50.86321813-11.35957333 66.99235626-31.1660096L502.1696 703.3059552a30.58346667 30.58346667 0 0 1 23.70218667-10.59498667h292.61824c46.7126048 0 84.7234848-36.0448 84.7234848-80.4272352v-548.3542752C903.17710187 19.54702186999998 865.16622187-16.49777813000003 818.45361813-16.49777813000003z"  horiz-adv-x="1024" />

    
    <glyph glyph-name="top" unicode="&#59153;" d="M534.69 661.29c-12 12.11-33.39 12.11-45.39 0L160.67 330.62a32 32 0 1 1 45.39-45.1l274.34 276v-545.41a32 32 0 1 1 64 0V560.74l273.54-275.23a32 32 0 1 1 45.39 45.1zM880 783.89H144a32 32 0 1 1 0-64h736a32 32 0 1 1 0 64z"  horiz-adv-x="1024" />

    
    <glyph glyph-name="broadcast" unicode="&#59152;" d="M1001.14937679 537.3762370300001c-25.37295013 386.41967408-168.41942914 339.8162963-168.41942915 339.8162963s-192.23893333-238.06558815-640.01972147-258.90765431v-333.99087408s190.29712592-9.70903703 314.05498469-44.66157037 206.86721581-54.62951506 319.75095308-151.46097777c0 0 202.98360098 16.44063605 174.63321285 449.20478023zM21.31335901 612.5889106100001h122.33386666v-325.83528297H21.31335901zM450.71170369 74.19044345999998c-47.89791605 57.86586075-62.52619852 132.43126518-62.52619851 132.43126518h-114.82554469c0-118.45025185 106.92886124-267.96942222 129.58328098-298.00271013 22.65441975-30.0332879 51.0048079-16.57008987 116.12008297 0 64.98582124 16.57008987 12.16865975 82.72099555 12.16865975 82.72099557s-32.62236445 24.98458864-80.5202805 82.85044938z"  horiz-adv-x="1024" />

    
    <glyph glyph-name="living" unicode="&#59486;" d="M512 768a32 32 0 0 0 32-32v-704a32 32 0 1 0-64 0v704A32 32 0 0 0 512 768zM320 640a32 32 0 0 0 32-32v-448a32 32 0 1 0-64 0v448A32 32 0 0 0 320 640z m384 0a32 32 0 0 0 32-32v-448a32 32 0 1 0-64 0v448A32 32 0 0 0 704 640z m192-128a32 32 0 0 0 32-32v-192a32 32 0 1 0-64 0v192A32 32 0 0 0 896 512zM128 512a32 32 0 0 0 32-32v-192a32 32 0 0 0-64 0v192A32 32 0 0 0 128 512z"  horiz-adv-x="1024" />

    
    <glyph glyph-name="PlanPool" unicode="&#59150;" d="M184.407452 243.05799100000002c89.348957 45.51666 196.883089 32.69668 302.625412-36.07973 63.410192-41.24231 137.849578-67.479881 209.505571-73.740468 11.230786-0.995677 22.26305-1.490957 32.999578-1.490957 58.334593 0 108.129696 14.409175 142.516878 41.739636 13.713326 10.93505 16.002462 30.908964 5.072529 44.721551-10.937097 13.71435-30.91408 16.001439-44.722574 5.071505-3.355421-2.671852-7.020904-5.15951-10.966773-7.468088V802.5782839999999c0 28.339442-23.187095 51.526537-51.525514 51.526537H254.635933c-28.340465 0-51.52756-23.187095-51.52756-51.526537v-480.747205c0-0.901533 0.035816-1.771343 0.104377-2.611478-16.291035-5.126764-32.212656-11.627828-47.725978-19.513426-15.603373-7.949043-21.862937-27.129894-13.913894-42.732243 8.051373-15.70775 27.130917-21.866007 42.834574-13.915941z m74.224492 529.757432c0 15.458063 12.883425 25.765827 25.765826 25.765827h455.758068c12.877285 0 25.76071-10.307763 25.760711-25.765827v-562.808176c0-4.576225-1.13587-8.698103-3.094478-12.592806-66.8792-8.831132-159.01155 9.431813-241.101174 62.839187-35.289738 22.958898-70.917166 40.599673-106.558921 52.807716h303.227116v51.529607H409.219637v-49.546439c-17.187451 5.595438-34.374902 9.925047-51.526537 12.970406v36.576033h-51.531653v-31.267121c-16.096607 0.445138-31.948643-0.286526-47.529503-2.166339V772.815423zM995.297796 565.962262c-17.195637 3.480264-33.995255-7.653307-37.474496-24.847922l-108.327194-537.278733c-2.781346-13.71435-16.794501-26.13524-29.520338-26.13524H203.987393c-12.918217 0-26.735921 12.220323-29.518291 26.13524L66.139861 541.0161029999999c-3.479241 17.194614-20.274766 28.323069-37.465286 24.843828-17.196661-3.475148-28.330232-20.273742-24.848945-37.467333l108.431572-537.278733c4.174066-20.869307 15.801894-40.35101 32.696679-54.661947 17.194614-14.505365 38.160111-22.556739 59.130726-22.556739h615.891161c42.836621 0 83.190701 33.888831 91.833545 77.218686l108.332311 537.278733c3.577478 17.291828-7.552 34.088376-24.843828 37.569664zM306.161447 673.757337h51.531653v-51.526537h-51.531653zM306.161447 519.172609h51.531653v-51.52756h-51.531653zM409.219637 519.172609h309.168432v-51.52756H409.219637zM409.219637 673.757337h309.168432v-51.526537H409.219637z"  horiz-adv-x="1024" />

    
    <glyph glyph-name="PlanManage" unicode="&#59151;" d="M794.2 61.39999999999998c-25.3 0-45.7 20.5-45.7 45.7h-53.4c-12.7-25.6-39-43.1-69.5-43.1-42.8 0-77.6 34.7-77.6 77.6s34.7 77.6 77.6 77.6c3.8 0 7.5-0.3 11.2-0.8l23.3 56.5c-1.7 1.2-3.2 2.5-4.7 3.9l-50.8-3.2c0.1-0.9 0.1-1.7 0.1-2.6 0-18.1-14.7-32.7-32.7-32.7-18.1 0-32.7 14.7-32.7 32.7s14.7 32.7 32.7 32.7c8.3 0 15.9-3.1 21.7-8.2l51.6 3.3c-0.1 0.8-0.1 1.6-0.1 2.5 0 19.1 15.4 34.5 34.5 34.5s34.5-15.4 34.5-34.5c0-18.3-14.2-33.2-32.2-34.4L658.5 212c26.4-12.4 44.6-39.2 44.6-70.2 0-4.1-0.3-8.1-0.9-12h52.2c7.8 13.9 22.8 23.3 39.9 23.3 25.3 0 45.7-20.5 45.7-45.7 0-25.5-20.5-46-45.8-46zM831.6 831.9H194.2c-33 0-60-27-60-60v-774c0-33 27-60 60-60h637.5c33 0 60 27 60 60v774c-0.1 33-27.1 60-60.1 60z m22.1-835.2c0-11.1-9.1-20.1-20.2-20.1h-641c-11.1 0-20.2 9.1-20.2 20.1v777c0 11.1 9.1 20.1 20.2 20.1h641c11.1 0 20.2-9.1 20.2-20.1v-777zM731.4 608.9h-446c-10.4 0-19 8.5-19 19s8.5 19 19 19h446c10.4 0 19-8.5 19-19s-8.6-19-19-19zM731.4 440.9h-446c-10.4 0-19 8.5-19 19 0 10.4 8.5 19 19 19h446c10.4 0 19-8.5 19-19 0-10.4-8.6-19-19-19zM452.4 272.9h-167c-10.4 0-19 8.5-19 19 0 10.4 8.5 19 19 19h167c10.5 0 19-8.5 19-19 0-10.4-8.6-19-19-19zM451.1 103.39999999999998H286.6c-11.1 0-20.2 9.1-20.2 20.2v0.5c0 11.1 9.1 20.2 20.2 20.2h164.5c11.1 0 20.2-9.1 20.2-20.2v-0.5c0.1-11.1-9-20.2-20.2-20.2z"  horiz-adv-x="1024" />

    
    <glyph glyph-name="BroadcastGroup" unicode="&#59148;" d="M295.68 896h445.824L517.44 490.112 295.68 896z m-61.568-919.104L0 403.2l468.864-1.088-234.752-425.216zM13.184 461.888L241.28 877.44 468.992 460.8 13.184 461.952z m552.576-1.28L789.888 866.624l223.552-407.04-447.68 1.024z m-284.544-515.456l235.968 427.52 233.6-427.52H281.216z m513.28 37.76L565.632 401.92 1024 400.832l-229.504-417.92z"  horiz-adv-x="1024" />

    
    <glyph glyph-name="ProgramSource" unicode="&#59149;" d="M256 448a356.608 356.608 0 0 0 112.64 259.136c11.392 10.048 26.624 16.256 43.392 16.256 35.392 0 64-27.392 64-61.12 0-17.856-8-33.92-20.736-45.056A237.952 237.952 0 0 1 384 447.936a237.44 237.44 0 0 1 75.008-172.8 59.52 59.52 0 0 0 17.024-41.6c0-33.792-28.608-61.12-64-61.12-16.768 0-32.064 6.208-43.52 16.32C299.008 255.03999999999996 256 346.688 256 447.936zM0 448C0 610.56 66.496 758.208 174.912 867.712L187.456 880A65.92 65.92 0 0 0 230.656 896c35.328 0 64-27.392 64-61.12a59.392 59.392 0 0 0-16.768-41.216C185.28 705.152 128 583.04 128 448c0-128.32 51.84-245.12 136.576-332.352 3.2-3.328 12.16-12.032 13.312-13.248a59.52 59.52 0 0 0 16.768-41.216c0-33.728-28.672-61.12-64-61.12-16.64 0-31.744 6.016-43.136 15.936C71.68 126.39999999999998 0 279.23199999999997 0 447.936z m1024 0c0-101.312-43.008-192.96-112.512-259.264a65.472 65.472 0 0 0-43.52-16.32c-35.392 0-64 27.328-64 61.12 0 16 6.4 30.656 17.024 41.6A237.44 237.44 0 0 1 896 447.936a237.952 237.952 0 0 1-71.296 169.28 59.776 59.776 0 0 0-20.736 45.056c0 33.728 28.608 61.12 64 61.12 16.768 0 32-6.208 43.456-16.256A356.608 356.608 0 0 0 1024 447.936z m256 0c0-168.768-71.68-321.6-187.52-432.064a65.472 65.472 0 0 0-43.136-15.936c-35.328 0-64 27.392-64 61.12a59.52 59.52 0 0 0 16.768 41.216c1.152 1.216 10.112 9.92 13.312 13.248C1100.16 202.81600000000003 1152 319.616 1152 447.936c0 135.04-57.28 257.28-149.888 345.728a59.392 59.392 0 0 0-16.768 41.216c0 33.728 28.672 61.12 64 61.12 16.64 0 31.808-6.08 43.2-15.936l12.544-12.288C1213.504 758.2719999999999 1280 610.496 1280 447.936zM640 320a128 128 0 1 0 0 256 128 128 0 0 0 0-256z m0-128l384-320H256l384 320z"  horiz-adv-x="1280" />

    
    <glyph glyph-name="IPB" unicode="&#59147;" d="M650.666667 151.46666700000003l-4.266667-49.066667c106.666667-14.933333 189.866667-42.666667 189.866667-76.8 0-46.933333-164.266667-85.333333-322.133334-85.333333-157.866667 0-322.133333 38.4-322.133333 85.333333 0 34.133333 81.066667 61.866667 185.6 76.8l-6.4 46.933333c-174.933333-17.066667-300.8-66.133333-300.8-125.866666 0-72.533333 198.4-132.266667 441.6-132.266667 243.2 0 441.6 59.733333 441.6 132.266667 0 59.733333-128 108.8-302.933333 128z m-162.133334-134.4h59.733334V241.06666700000005h-59.733334v-224z m0 514.133333v81.066667h59.733334v-81.066667h-59.733334z m360.533334-49.066667c29.866667-123.733333 17.066667-243.2-25.6-251.733333-55.466667-12.8-68.266667 87.466667-224 98.133333-23.466667 2.133333-40.533333-10.666667-36.266667-29.866666 2.133333-14.933333-89.6-46.933333-93.866667-23.466667-4.266667 19.2-29.866667 6.4-44.8 38.4 0 0-19.2-2.133333-25.6-4.266667-32-6.4-66.133333 27.733333-72.533333 59.733334-6.4 29.866667 8.533333 76.8 40.533333 83.2C725.333333 529.066667 640 682.666667 712.533333 697.6c42.666667 10.666667 106.666667-91.733333 136.533334-215.466667z m-51.2-185.6c10.666667 2.133333 25.6 74.666667 2.133333 170.666667-23.466667 96-70.4 164.266667-81.066667 162.133333-8.533333-2.133333-29.866667-83.2-6.4-179.2 25.6-96 76.8-153.6 85.333334-153.6zM256 712.533333c10.666667 89.6 44.8 164.266667 76.8 162.133334 53.333333-4.266667 6.4-117.333333 262.4-140.8 21.333333-2.133333 36.266667-32 34.133333-53.333334-2.133333-21.333333-23.466667-49.066667-44.8-46.933333h-17.066666c-36.266667 0-108.8-2.133333-123.733334-4.266667-106.666667-21.333333-106.666667-91.733333-147.2-87.466666-32 2.133333-49.066667 83.2-40.533333 170.666666z m51.2-123.733333c6.4 0 38.4 44.8 44.8 113.066667 8.533333 68.266667-12.8 123.733333-19.2 123.733333-6.4 0-34.133333-51.2-42.666667-119.466667-6.4-68.266667 10.666667-117.333333 17.066667-117.333333z m0 0"  horiz-adv-x="1024" />

    
    <glyph glyph-name="config" unicode="&#59198;" d="M1007.167506 164.605908H595.266452c-9.215934 0-16.895879 7.423947-17.151878 16.639881v39.679716c0.255998 9.215934 7.679945 16.895879 17.151878 16.639881h411.901054c9.215934 0 16.895879-7.423947 16.89588-16.639881v-39.679716c-0.255998-9.215934-7.679945-16.639881-16.89588-16.639881z m0-146.174955H595.266452c-9.215934 0-16.895879 7.423947-17.151878 16.639881v39.679716c0.255998 9.215934 7.679945 16.895879 17.151878 16.639881h411.901054c9.215934 0 16.895879-7.423947 16.89588-16.639881v-39.423718c-0.255998-9.471932-7.679945-16.895879-16.89588-16.895879z m0-146.430953H595.266452c-9.215934 0-16.895879 7.423947-17.151878 16.639881V-71.68040299999996c0.255998 9.215934 7.679945 16.895879 17.151878 16.639881h411.901054c9.215934 0 16.895879-7.423947 16.89588-16.639881v-39.423718c-0.255998-9.471932-7.679945-16.639881-16.89588-16.895879zM503.875105 243.96533999999997l-0.255998-62.975549c0-6.143956-5.119963-11.007921-11.519918-10.751923-114.68718 5.887958-206.334525 99.583288-206.334525 214.014469 0 118.015156 97.791301 214.270468 217.598445 214.270468s217.598444-96.255312 217.598444-214.270468c0-22.271841-3.583974-44.543682-10.495925-65.791529-1.535989-4.351969-5.63196-7.423947-10.239927-7.423947h-57.855586c-7.935943 0-13.311905 8.191941-9.983929 15.35989 8.44794 18.17587 12.799908 37.887729 12.799909 57.855586 0 77.055449-63.999542 139.775001-142.334983 139.775001s-142.078984-62.719552-142.078984-139.775001c0.767995-77.311447 64.767537-140.030999 143.102977-140.286997z m-17.919872-297.469873c4.607967 0.255998 9.215934-1.791987 12.799909-5.119963 3.327976-3.327976 5.375962-7.935943 5.375961-12.54391V-110.08012799999995c-0.255998-9.72793-7.935943-17.663874-17.919872-17.663874h-70.911493c-33.53576-0.511996-61.695559 25.855815-63.743544 59.391576v0.767994l-9.471932 68.607509c-0.511996 3.839973-3.071978 6.911951-6.655953 8.44794-27.135806 11.775916-52.991621 26.367811-77.055449 43.519689-3.071978 2.303984-6.911951 2.559982-10.495925 1.279991l-65.279533-26.367812c-0.255998-0.255998-0.511996-0.255998-0.767994-0.255998-30.207784-15.103892-66.815522-4.351969-84.223398 24.575824L8.518647 203.77362800000003c-16.895879 28.927793-7.935943 66.047528 20.479853 83.967399 0.255998 0.255998 0.511996 0.255998 0.767995 0.511997l55.807601 42.495696c3.071978 2.303984 4.607967 6.143956 4.095971 9.983929-3.327976 28.927793-3.327976 58.111585 0 87.039377 0.511996 3.839973-1.023993 7.679945-4.095971 9.983929l-55.551603 42.495696c-0.255998 0.255998-0.511996 0.255998-0.767994 0.511996-28.159799 17.663874-37.119735 54.783608-20.479854 83.711402l89.087363 151.550916c17.151877 28.671795 53.759616 39.16772 83.9674 24.319826 0.255998-0.255998 0.511996-0.255998 0.767994-0.255998l65.279533-26.367811c3.583974-1.279991 7.423947-0.767995 10.495925 1.279991 23.80783 17.407876 49.919643 31.743773 77.055449 43.519688 3.583974 1.535989 5.887958 4.607967 6.655953 8.44794l9.471932 68.607509v0.767995C353.092183 870.136863 380.995984 896.504675 414.787742 895.992678h177.918728c34.047757 0 61.695559-25.855815 63.743544-59.391575 0-0.255998 0-0.511996 0.255998-0.767994l9.471933-68.60751c0.511996-3.839973 3.071978-6.911951 6.655952-8.447939 27.135806-11.775916 52.991621-26.367811 77.055449-43.519689 3.071978-2.303984 6.911951-2.559982 10.495925-1.279991L825.152808 739.833795c0.255998 0.255998 0.511996 0.255998 0.511996 0.255998 30.207784 14.847894 66.815522 4.351969 83.9674-24.575824l88.831365-151.550917c16.895879-28.927793 8.191941-66.047528-20.223856-83.967399-0.255998-0.255998-0.511996-0.255998-0.767994-0.511997l-55.551603-42.239697c-3.071978-2.303984-4.607967-6.143956-4.095971-9.983929 3.327976-28.927793 3.327976-58.111585 0-87.039378-0.511996-3.839973 1.023993-7.679945 4.095971-9.983928l0.255998-0.255999c8.191941-6.143956 3.839973-19.455861-6.655952-19.45586H849.98463c-6.911951 0-12.031914 6.143956-10.751923 12.799908l0.255998 1.279991c7.423947 38.911722 7.423947 79.359433 0 118.271154l-2.81598 15.35989c-0.767995 4.095971 0.767995 7.935943 4.095971 10.495925l79.871429 60.927565c4.351969 3.327976 5.63196 9.215934 2.81598 14.079899l-69.631502 119.039149c-2.81598 4.607967-8.703938 6.655952-13.567903 4.351969l-92.671338-38.399726c-3.839973-1.535989-7.935943-1.023993-11.263919 1.791988l-12.54391 10.495925c-30.975779 25.599817-66.303526 45.823672-104.191255 58.879579l-15.359891 5.631959c-3.839973 1.279991-6.655952 4.607967-7.167948 8.703938l-13.823901 98.303297c-0.767995 5.375962-5.375962 9.215934-10.751924 9.215934h-137.983013c-5.375962 0-9.983929-4.095971-10.751923-9.215934l-13.567903-98.559295c-0.511996-4.095971-3.327976-7.423947-7.167949-8.703938l-15.103892-5.63196c-38.143727-13.311905-73.471475-33.279762-104.447253-59.135577l-12.54391-10.495925c-3.071978-2.559982-7.167949-3.071978-11.007922-1.791987L166.213519 666.106322c-5.119963 2.047985-10.751923 0-13.311905-4.607967l-68.863507-117.247162c-2.81598-4.607967-1.535989-10.751923 2.81598-14.079899l79.871429-60.927564c3.071978-2.559982 4.863965-6.655952 4.09597-10.495925l-2.81598-15.615889c-3.583974-19.455861-5.63196-39.16772-5.631959-59.135577 0.255998-19.967857 2.047985-39.679716 5.631959-59.135577l2.81598-15.615888c0.767995-4.095971-0.767995-7.935943-4.09597-10.495925L86.598089 238.07738300000005c-4.351969-3.327976-5.63196-9.471932-2.81598-14.0799L153.925607 104.95833400000004c2.81598-4.607967 8.703938-6.655952 13.567903-4.351969l92.415339 39.16772c3.839973 1.535989 7.935943 1.023993 11.007922-1.791987l12.54391-10.495925c30.975779-25.599817 66.303526-45.823672 104.191255-58.879579l15.103892-5.375961c3.839973-1.279991 6.655952-4.607967 7.167949-8.703938l13.567903-98.559295c0.767995-5.375962 5.375962-9.215934 10.751923-9.215934l51.71163-0.255999z"  horiz-adv-x="1024" />

    
    <glyph glyph-name="evalReport" unicode="&#59145;" d="M161.216 832h704a32 32 0 0 0 32-32v-536.064a12.8 12.8 0 0 0-7.104-11.52l-362.624-181.248a32 32 0 0 0-28.608 0l-362.624 181.312a12.8 12.8 0 0 0-7.04 11.456V800a32 32 0 0 0 32 32z m64-64a32 32 0 0 1-32-32v-439.808l314.24-157.12a12.8 12.8 0 0 1 11.456 0l314.24 157.12V736a32 32 0 0 1-32 32h-576z m128-160.896a32 32 0 1 0 0-64 32 32 0 0 0 0 64z m128 0h192a32 32 0 0 0 0-64h-192a32 32 0 1 0 0 64z m-128-128a32 32 0 1 0 0-64 32 32 0 0 0 0 64z m128 0h192a32 32 0 0 0 0-64h-192a32 32 0 1 0 0 64z m39.232-468.672l401.792 204.736a32 32 0 0 0 29.056-56.96v-0.064l-408.96-208a64 64 0 0 0-58.048-0.064l-409.216 208.064a32 32 0 0 0 29.056 56.96l401.792-204.672a16 16 0 0 1 14.528 0z"  horiz-adv-x="1024" />

    
    <glyph glyph-name="Fav" unicode="&#59144;" d="M752-43.200000000000045c-9.6 0-20.8 3.2-30.4 8l-208 104-209.6-104c-20.8-11.2-48-9.6-67.2 4.8-19.2 14.4-30.4 40-25.6 64l43.2 224L89.6 411.2C72 428.8 65.6 456 72 478.4c8 24 27.2 41.6 52.8 44.8l228.8 41.6 102.4 208c11.2 22.4 33.6 36.8 57.6 36.8s48-14.4 57.6-36.8l102.4-208 228.8-40c24-3.2 44.8-20.8 51.2-44.8 8-24 1.6-49.6-16-67.2L772.8 257.6l41.6-224c4.8-25.6-6.4-49.6-25.6-64-9.6-8-22.4-12.8-36.8-12.8z"  horiz-adv-x="1024" />

    
    <glyph glyph-name="note" unicode="&#59143;" d="M530.975 322.27c37.806 57.455 176.293 263.933 228.158 308.35-66.135-157.529-196.404-319.61-274.365-474.165 144.019-48.795 209.288 9.045 288.74 76.374l-78.73 15.107c99.987 32.764 93 20.63 128.017 69.031 27.78 38.384 50.835 90.192 59.284 144.299l-65.067-8.103c20.756 12.086 66.991 33.323 74.334 45.168C910.986 530 962.57 832.846 963.168 895.796 764.33 893.958 446.636 478.557 423.655 280.029c-23.123-199.608-250.319-501.222 107.319 42.243z m296.4-112.237c59.303-35.362 94.579-81.03 94.579-131.923 0-274.538-861.12-274.538-861.12 0 0 126.073 195.605 182.615 296.939 198.106-2.386-16.964-7.592-34.265-14.395-51.96-69.647-12.74-233.595-59.862-233.595-146.146 0-207.383 763.221-207.383 763.221 0 0 36.392-32.783 71.119-86.948 99.034 13.866 10.094 27.472 21.237 41.319 32.89z"  horiz-adv-x="1024" />

    
    <glyph glyph-name="ReadMsg" unicode="&#59475;" d="M56.4-32.5l0 14.378C56.4-22.587999999999965 56.232-27.501999999999953 56.4-32.5zM637.418 647.0360000000001L465.83 475.454 379.186 563.7919999999999 348.606 533.2139999999999 465.83 415.992 667.998 616.4580000000001ZM960.204-37.20600000000002l0 512.66-139.31 57.76L820.894 828.818 195.71 828.818l0-297.304L56.4 473.752l0-491.874 0-14.378c0.662-19.73 6.548-40.786 48.61-40.786l806.854 0C950.592-73.28599999999994 958.654-55.436000000000035 960.204-37.20600000000002zM820.894 487.342l71.356-30.578-71.356-45.868L820.894 487.342zM238.182 786.346l540.242 0 0-400.932-270.122-169.888-270.12 169.888L238.182 786.346zM195.71 485.646l0-74.75-71.356 44.166L195.71 485.646zM917.732-32.51400000000001L98.872-32.51400000000001 98.872 422.784l409.43-258.226 409.43 258.226L917.732-32.51400000000001 917.732-32.51400000000001z"  horiz-adv-x="1024" />

    
    <glyph glyph-name="UnReadMSG" unicode="&#59142;" d="M80.896 768h862.208L512 363.84000000000003 80.896 768zM1024 756.16V16l-362.304 400.448L1024 756.16zM0 16V756.16l362.304-339.712L0 16z m615.04 356.672l336.832-372.352H72.128L408.96 372.672 512 276.15999999999997l103.04 96.512z"  horiz-adv-x="1024" />

    
    <glyph glyph-name="Equipment" unicode="&#59140;" d="M798.376125 432.924098L540.012482 881.22339a33.190775 33.190775 0 0 1-55.38191 0l-258.555498-448.299292a31.975698 31.975698 0 0 1 27.754906-48.091451h516.919142a31.975698 31.975698 0 0 1 27.627003 48.091451z m-489.164235 15.987849L512.257576 801.156241l203.045685-352.244294h-406.091371zM224.476289 320.30568800000003a224.149646 224.149646 0 1 1 223.82989-223.82989 224.213598 224.213598 0 0 1-223.82989 223.82989z m0-384.219993a159.878492 159.878492 0 1 0 159.878493 159.878492 159.878492 159.878492 0 0 0-159.878493-159.878492z m789.991607 374.883089a31.975698 31.975698 0 0 1-22.638795 9.336904h-383.708381a31.975698 31.975698 0 0 1-22.574844-9.336904 31.975698 31.975698 0 0 1-9.400855-22.638795v-384.347895a31.975698 31.975698 0 0 1 31.975699-31.975699h383.708381a31.975698 31.975698 0 0 1 31.975699 31.975699V288.32998899999996a31.975698 31.975698 0 0 1-9.400856 22.638795z m0 0"  horiz-adv-x="1024" />

    
    <glyph glyph-name="IPPhoneLog" unicode="&#59139;" d="M694.290108 42.39700000000005c-2.654 4.923-64.807 121.229-105.498 169.997-18.077 21.615-37.923 42.692-64.384 42.692-22.615 0-42.461-15.384-65.307-33.153-23.73-18.461-37.461-20.384-42.538-23-1.192 1.308-115.056 134.921-145.036 194.824-18.904 37.846-5.308 51.615 54.98 82.999 55.057 28.653 54.288 69.076 44.365 89.499-4 6.019-98.71 148.786-145.325 195.401-13.154 13.096-29.98 20.115-48.769 20.115-52.961 0-107.537-55.653-113.229-61.614-37.769-37.749-91.806-178.382-45.499-332.091 46.384-153.902 143.671-295.823 297.438-433.744 53.153-47.692 110.768-71.922 171.305-71.922 95.652 0 168.767 61.384 188.92 80.076C710.790108-4.678999999999974 702.444108 30.397000000000048 694.290108 42.39700000000005zM192.009108 728.137c42.826-42.769 136.46-183.632 137.094-183.632 1-4-2.788-14.365-24.48-25.634-14.615-7.711-31.384-16.75-46.557-27.884L112.318108 700.7529999999999c19.096 16.307 45.345 33.576 64.461 33.576C183.029108 734.329 187.721108 732.4449999999999 192.009108 728.137L192.009108 728.137zM347.180108-10.447999999999979C200.105108 121.54999999999995 107.318108 256.471 63.473108 401.796c-37.384 124.037-0.25 236.766 26.634 275.419l144.363-207.689c-19.038-23-27.019-53.768-5.385-96.999 32.576-65.134 146.632-198.824 152.825-205.824 2.961-3.077 14.231-12.615 35.192-12.615 5.808 0 11.884 0.923 18.077 2.461l138.383-205.997c-24.692-11.692-54.076-20.692-86.768-20.692C438.256108-70.13999999999999 391.333108-50.139999999999986 347.180108-10.447999999999979zM643.368108-2.83299999999997c-6.961-6.538-21.73-19.077-41.73-31.538L464.871108 168.93399999999997c7.615 4.308 15.384 9.231 23.461 15.538 11.808 9.231 29.769 23.154 36.076 23.154 2 0 8.615-2.461 27.846-25.615 37.538-44.999 99.537-160.844 101.306-163.998C653.714108 18.013000000000034 656.945108 9.859000000000037 643.368108-2.83299999999997zM852.4288 209.01415399999996L641.090954 209.01415399999996 665.745723 157.14461500000004 852.4288 157.14461500000004ZM395.527877 367.77353800000003l456.900923 0 0-51.869538-456.900923 0 0 51.869538ZM820.015262 831.172923L820.015262 896 424.672492 896l0-64.827077L220.502646 831.172923l0-36.588308 51.830154-54.153846L272.3328 779.342769l152.300308 0 0-84.243692 395.382154 0L820.015262 779.342769l152.300308 0 0-855.512615-279.236923 0L657.435569-128 1024.185108-128 1024.185108 831.172923 820.015262 831.172923zM768.185108 746.929231l-291.682462 0L476.502646 844.169846 768.185108 844.169846 768.185108 746.929231zM395.527877 526.572308l456.900923 0 0-51.830154-456.900923 0 0 51.830154Z"  horiz-adv-x="1025" />

    
    <glyph glyph-name="FaultsType" unicode="&#59138;" d="M153.6-5.1200000000000045L870.4-5.1200000000000045 870.4 46.08000000000004 824.32 46.08000000000004 774.144 252.928 223.232 105.47199999999998 223.232 104.44799999999998 209.92 46.08000000000004 153.6 46.08000000000004ZM660.48 721.92L363.52 721.92 336.896 604.1600000000001 667.648 693.248ZM691.2 592.896L311.296 490.496 292.864 411.648 708.608 522.24ZM733.184 422.912L267.264 297.98400000000004 249.856 219.13599999999997 749.568 353.28ZM972.8-25.600000000000023c0-28.672-22.528-51.2-51.2-51.2L819.2-76.79999999999995l0-51.2 102.4 0c56.32 0 102.4 46.08 102.4 102.4L1024 76.79999999999995l-51.2 0L972.8-25.600000000000023zM921.6 896L819.2 896l0-51.2 102.4 0c28.672 0 51.2-22.528 51.2-51.2l0-102.4 51.2 0L1024 793.6C1024 849.92 977.92 896 921.6 896zM51.2-25.600000000000023L51.2 76.79999999999995 0 76.79999999999995l0-102.4c0-56.32 46.08-102.4 102.4-102.4l102.4 0 0 51.2L102.4-76.79999999999995C73.728-76.79999999999995 51.2-54.27200000000005 51.2-25.600000000000023zM51.2 793.6c0 28.672 22.528 51.2 51.2 51.2l102.4 0L204.8 896 102.4 896C46.08 896 0 849.92 0 793.6l0-102.4 51.2 0L51.2 793.6z"  horiz-adv-x="1024" />

    
    <glyph glyph-name="InfraRedYuan" unicode="&#59135;" d="M362.518603 868.795085a21.670725 21.670725 0 0 1 4.01957-7.107066l129.558311-150.762999L377.664808 575.5994989999999a20.796905 20.796905 0 0 1-5.825463 0.932075l-324.478326-1.281602L362.518603 868.795085m513.922403 0l322.730686-302.92411h-331.643646a20.272613 20.272613 0 0 1-3.029241 4.602116l-121.053134 141.09273 129.150529 150.122198a20.214359 20.214359 0 0 1 3.844806 6.815793M20.796905 514.199113l202.726135-464.114689a25.224258 25.224258 0 0 0 5.825464-9.612015 20.563887 20.563887 0 0 1 18.46672-11.650928H991.08613a49.341677 49.341677 0 0 1 22.952327 20.214359l132.354534 266.806235 0.699056 1.572876 71.070656 179.657298v-61.458641l-220.319035-542.991467H230.979634L20.85516 425.186028V514.199113M918.850381-84.60029599999996a41.302537 41.302537 0 1 1-41.302537 41.302537 41.360792 41.360792 0 0 1 41.302537-41.302537m-103.227216 0a41.302537 41.302537 0 1 1-41.302537 41.302537 41.302537 41.302537 0 0 1 41.302537-41.302537m-247.698714 0h144.471498a41.302537 41.302537 0 0 1 0 82.605075h-144.471498a41.302537 41.302537 0 1 1 0-82.605075M877.547844 896H361.470019l-361.178746-335.954489-0.291273 0.582547V421.224713l216.765502-549.224713h795.001024l227.193083 559.594038V529.636591l1.398111 25.806804L877.547844 896zM515.14575 720.47878L382.092161 875.377859h474.833542l-133.05359-154.899079z m228.125157-330.012515l-249.388099 0.932074-104.042781 167.016043 123.965867 141.675276 212.571168-0.699056 122.334737-142.549096-105.440892-166.375241z m-500.989874-332.051428L25.748549 554.511321l345.916032 1.339857 110.217772-172.142451-239.426556-325.352145z m753.11594 0l-230.455341 325.29389 102.586414 161.365343h347.663671L1127.926271 325.104563l-132.238024-266.747981z m-747.46524-8.79645l247.698714 319.934463h258.06804l237.387643-319.934463z m670.918648-113.538287a20.622141 20.622141 0 1 0 20.622141 20.622141 20.563887 20.563887 0 0 0-20.622141-20.622141z m-103.227216 0a20.622141 20.622141 0 1 0 20.680396 20.622141 20.622141 20.622141 0 0 0-20.680396-20.622141z m-247.698714 0a20.622141 20.622141 0 1 0 0 41.244283h144.471498a20.622141 20.622141 0 1 0 0-41.244283zM598.624644 596.33815h43.108431v-151.986347h-43.108431zM530.291956 624.020753l30.478826 30.478826 68.175401-68.169576-30.484652-30.484651zM640.393219 555.845352l-30.484651 30.478826 68.169575 68.175401 30.484651-30.484651z"  horiz-adv-x="1240" />

    
    <glyph glyph-name="you" unicode="&#59251;" d="M247.279583 779.179319L664.287367 384.109691 247.279583-10.959937c-36.271085-31.152182-37.03892-62.304363-2.266943-93.456545 34.735414-31.152182 68.739556-31.152182 101.975862 0L818.402914 337.381418c15.100764 11.334714 22.669428 26.910805 22.669428 46.728273s-7.568664 35.393559-22.669428 46.728272L346.988502 872.635864c-33.27287 31.152182-67.240448 31.152182-102.012425 0-34.735414-31.152182-34.004142-62.304363 2.303506-93.456545z"  horiz-adv-x="1024" />

    
    <glyph glyph-name="zuo" unicode="&#59467;" d="M213.882523 411.550652c-0.665555-1.33111-1.843076-2.508631-2.355041-3.83974a61.947819 61.947819 0 0 1 13.157512-73.671828l483.602557-444.488397a67.067473 67.067473 0 0 1 92.921727 2.457434c24.983914 25.598272 23.755197 66.043542-2.559827 90.310704l-433.993105 398.97467 432.252423 404.759878a62.562177 62.562177 0 0 1 1.689486 90.310704 66.555508 66.555508 0 0 1-92.716942 1.63829L226.732856 429.162264c-0.870341-0.819145-1.177521-2.150255-2.201452-2.9694-0.716752-0.665555-1.382307-1.177521-2.252648-1.843076-3.942134-3.839741-5.785209-8.498626-8.396233-12.799136z"  horiz-adv-x="1024" />

    
    <glyph glyph-name="shijian" unicode="&#59423;" d="M475.428571 713.142857h73.142858v-365.714286h-73.142858zM475.428571 420.571429h329.142858v-73.142858h-329.142858zM530.285714-18.285714C762.550857-18.285714 950.857143 170.020571 950.857143 402.285714S762.550857 822.857143 530.285714 822.857143 109.714286 634.550857 109.714286 402.285714 298.020571-18.285714 530.285714-18.285714z m0-73.142857C257.609143-91.428571 36.571429 129.609143 36.571429 402.285714S257.609143 896 530.285714 896 1024 674.962286 1024 402.285714 802.962286-91.428571 530.285714-91.428571z"  horiz-adv-x="1024" />

    
    <glyph glyph-name="wulianwang" unicode="&#59424;" d="M880 208c-32 0-57.6-9.6-83.2-25.6l-99.2 96c28.8 35.2 48 83.2 48 134.4 0 57.6-22.4 108.8-60.8 147.2l80 80c16-9.6 32-12.8 51.2-12.8 60.8-3.2 112 48 112 108.8S876.8 848 816 848 704 796.8 704 736c0-19.2 6.4-38.4 12.8-54.4l-86.4-86.4c-28.8 16-64 25.6-102.4 25.6-51.2 0-99.2-19.2-137.6-51.2L307.2 656c6.4 16 12.8 32 12.8 48 0 60.8-51.2 112-112 112S96 764.8 96 704s51.2-112 112-112c22.4 0 41.6 6.4 60.8 16l86.4-83.2c-22.4-32-32-70.4-32-112 0-35.2 9.6-70.4 25.6-99.2l-70.4-70.4c-28.8 19.2-60.8 32-99.2 32C80 272 0 192 0 96s80-176 176-176 176 80 176 176c0 38.4-12.8 73.6-32 99.2l64 64c38.4-38.4 89.6-60.8 147.2-60.8 44.8 0 86.4 12.8 118.4 35.2l105.6-102.4c-12.8-16-19.2-41.6-19.2-67.2 0-80 64-144 144-144s144 64 144 144-64 144-144 144z"  horiz-adv-x="1024" />

    
    <glyph glyph-name="zhengjishi" unicode="&#59425;" d="M480 736v-65.5296a405.1968 405.1968 0 0 0 64 0.512V736H480z m35.2-128C329.632 608 179.2 457.568 179.2 272S329.632-64 515.2-64 851.2 86.432 851.2 272 700.768 608 515.2 608zM640 832H384v-32h256v32z m110.2208-236.288l53.664 53.6576 135.7632-135.7632-65.2992-65.2992C900.5056 395.1232 915.2 335.2768 915.2 272c0-220.9152-179.0848-400-400-400S115.2 51.0848 115.2 272c0 62.4832 14.3296 121.6192 39.872 174.3104l-0.5632-0.5824L86.6304 513.6l135.7632 135.7632 55.4048-55.4048A398.3424 398.3424 0 0 0 416 659.6032V736H320V896h384v-160H608v-74.816a398.1952 398.1952 0 0 0 142.2208-65.472zM696.5696 469.824l45.248-45.2544-138.5856-138.5984c3.0912-9.4336 4.768-19.5072 4.768-29.9712 0-53.0176-42.9824-96-96-96-53.0176 0-96 42.9824-96 96 0 53.0176 42.9824 96 96 96 19.0208 0 36.7488-5.5296 51.6672-15.072l132.9024 132.896zM512 288a32 32 0 1 1 0-64 32 32 0 0 1 0 64z"  horiz-adv-x="1024" />

    
    <glyph glyph-name="wenben" unicode="&#59426;" d="M4.966 764.648C4.966 834.42 61.58 891.034 131.352 891.034h761.296c69.773 0 126.386-56.613 126.386-126.386v-761.296c0-69.773-56.613-126.386-126.386-126.386H131.352c-69.773 0-126.386 56.613-126.386 126.386V764.648z m63.317-64.062v-632.924c0-70.27 56.862-127.13 127.131-127.13h632.924c33.769 0 66.048 13.408 89.885 37.245s37.245 56.116 37.245 89.885V700.586c0 33.769-13.408 66.048-37.245 89.885s-56.116 37.246-89.885 37.246H195.414c-33.769 0-66.048-13.409-89.885-37.246s-37.246-56.116-37.246-89.885zM471.527 241.97V505.668H369.97c0-24.333-16.14-40.473-40.473-40.473-24.334 0-40.474 16.14-40.474 40.473v40.474c0 24.333 16.14 40.473 40.474 40.473 2.483 0 4.966-0.248 7.449-0.497 1.986 0.249 3.972 0.497 6.207 0.497h337.94c1.987 0 4.221-0.248 6.208-0.497 2.483 0.249 4.966 0.497 7.449 0.497 24.333 0 40.473-16.14 40.473-40.473v-40.474c0-24.333-16.14-40.473-40.473-40.473-24.334 0-40.474 16.14-40.474 40.473H552.97v-263.697c24.334 0 40.473-16.14 40.473-40.473 0-24.334-16.14-40.474-40.473-40.474h-81.195c-24.334 0-40.473 16.14-40.473 40.474-0.497 24.333 15.891 40.473 40.225 40.473z m0 0M892.648-128H131.352C58.848-127.752 0-68.904 0 3.352V764.648C0 837.152 58.848 896 131.352 896h761.296C965.152 896 1024 837.152 1024 764.648v-761.296c0-72.256-59.096-131.104-131.352-131.352zM131.352 886.068a121.42 121.42 0 0 1-121.42-121.42v-761.296c0-66.793 54.378-121.42 121.42-121.42h761.296c66.793 0 121.42 54.378 121.42 121.42V764.648c0 67.042-54.378 121.42-121.42 121.42H131.352z m697.234-950.503H195.414A132.345 132.345 0 0 0 63.317 67.662V700.586c0 35.259 13.657 68.531 38.735 93.362 24.83 24.83 58.103 38.735 93.362 38.735h632.924c35.259 0 68.283-13.657 93.361-38.735 24.83-25.079 38.736-58.103 38.736-93.362v-632.924c0-35.259-13.657-68.531-38.736-93.361-24.83-25.079-57.854-38.736-93.113-38.736zM195.414 822.751c-32.527 0-63.317-12.664-86.41-35.756-23.091-23.092-35.755-53.882-35.755-86.41v-632.923a122.413 122.413 0 0 1 122.165-122.164h632.924c32.527 0 63.317 12.663 86.409 35.755 23.092 23.092 35.755 53.882 35.755 86.41V700.585c0 32.527-12.663 63.317-35.755 86.41a121.097 121.097 0 0 1-86.41 35.755H195.415z m357.06-666.693h-81.196c-27.313 0-45.439 18.375-45.439 45.44 0 25.575 16.14 43.204 40.473 45.19V500.703H374.69c-1.987-24.333-19.865-40.473-45.191-40.473-27.314 0-45.44 18.374-45.44 45.44v40.473c0 27.313 18.375 45.439 45.44 45.439 2.483-0.248 4.966-0.248 7.2-0.497 1.987 0.249 4.47 0.497 6.208 0.497h337.94c1.986 0 4.22-0.248 6.207-0.497 2.483 0.249 4.966 0.249 7.201 0.497 27.313 0 45.44-18.374 45.44-45.44v-40.473c0-27.313-18.375-45.44-45.44-45.44-25.575 0-43.205 16.14-45.191 40.474H557.44V246.69c24.334-1.987 40.474-19.865 40.474-45.191 0.248-27.314-18.126-45.44-45.44-45.44z m-80.947 80.947c-21.603 0-35.508-13.905-35.508-35.507 0-21.603 13.905-35.508 35.508-35.508h81.195c21.602 0 35.507 13.905 35.507 35.508 0 21.602-13.905 35.507-35.507 35.507h-4.966v273.63h111.24v-4.967c0-21.602 13.904-35.507 35.506-35.507 21.603 0 35.508 13.905 35.508 35.507v40.474c0 21.602-13.905 35.507-35.508 35.507-2.234 0-4.469-0.248-6.704-0.497h-1.49c-1.738 0.249-3.476 0.497-5.462 0.497h-337.94c-1.738 0-3.476-0.248-5.463-0.497h-1.49c-2.234 0.249-4.22 0.249-6.704 0.497-21.602 0-35.507-13.905-35.507-35.507v-40.474c0-21.602 13.905-35.507 35.507-35.507s35.508 13.905 35.508 35.507v4.966h111.24v-273.63h-4.47z"  horiz-adv-x="1024" />

    
    <glyph glyph-name="daojishi" unicode="&#59427;" d="M905.344 795.648h-60.928v-100.352c0-126.336-58.24-241.024-159.488-302.848 101.248-61.824 159.488-174.72 159.488-301.952v-80.64h60.928c20.608 0 39.424-14.336 39.424-41.216a38.08 38.08 0 0 0-37.632-38.528H116.864a38.08 38.08 0 0 0-37.632 38.528c0 21.504 14.336 41.216 40.32 41.216h60.928v80.64c0 126.336 62.72 240.128 163.968 301.952C243.2 454.272 180.48 568.064 180.48 695.296V795.648H119.552c-20.608 0-39.424 19.712-39.424 41.216S98.944 875.392 119.552 875.392h787.584c20.608 0 37.632-18.816 37.632-40.32 0.896-20.608-19.712-39.424-39.424-39.424z m-140.672 0H260.224v-100.352c0-124.544 66.304-234.752 182.784-265.216 4.48-0.896 9.856-3.584 13.44-6.272l0.896-0.896 0.896-0.896a41.6 41.6 0 0 0 12.544-19.712c1.792-8.96 0.896-17.92-1.792-25.984 0 0 0-0.896-0.896-0.896v-1.792s0-0.896-0.896-0.896c-0.896-0.896-0.896-1.792-1.792-2.688l-0.896-0.896-0.896-0.896-0.896-0.896-0.896-0.896-2.688-2.688-0.896-0.896a35.328 35.328 0 0 0-13.44-5.376c-115.584-31.36-181.888-138.88-181.888-264.32v-80.64h503.552v80.64c0 124.544-67.2 233.856-183.68 264.32-0.896 0-0.896 0-1.792 0.896h-3.584a29.696 29.696 0 0 0-12.544 8.96l-0.896 0.896-0.896 0.896-0.896 0.896s0 0.896-0.896 0.896l-0.896 0.896c-0.896 1.792-2.688 3.584-3.584 6.272 0 0.896 0 0.896-0.896 1.792 0 0.896 0 0.896-0.896 1.792 0 0.896 0 0.896-0.896 1.792 0 0.896 0 0.896-0.896 1.792v4.48a38.208 38.208 0 0 0 28.672 41.216c116.48 30.464 183.68 139.776 183.68 265.216l-0.896 99.456zM564.864 489.216c-21.504-5.376-40.32-18.816-52.864-35.84a76.352 76.352 0 0 1-14.336 15.232l-2.688 1.792-0.896 1.792-2.688 1.792a88.96 88.96 0 0 1-32.256 15.232c-60.928 16.128-104.832 62.72-125.44 125.44h358.4c-21.504-62.72-66.304-110.208-127.232-125.44zM492.288 262.528l3.584 2.688h0.896l1.792 1.792c1.792 0.896 2.688 2.688 4.48 4.48l1.792 1.792 2.688 2.688 2.688 3.584s0.896 0.896 0.896 1.792l5.376-8.96 2.688-0.896 0.896-0.896c6.272-6.272 15.232-12.544 23.296-17.024 0 0 2.688-0.896 3.584-0.896l2.688-0.896c0.896 0 2.688-0.896 3.584-0.896 67.2-18.816 108.416-74.368 108.416-163.968v-17.024H362.368v17.024c0 87.808 40.32 144.256 106.624 163.968 8.96 2.688 16.128 6.272 23.296 11.648z"  horiz-adv-x="1024" />

    
    <glyph glyph-name="shanchu" unicode="&#59137;" d="M799.2 21.6c0-34.4-28-62.4-62.4-62.4H287.2c-34.4 0-62.4 28-62.4 62.4V684h574.4v-662.4zM349.6 796c0 7.2 5.6 12.8 12.8 12.8h300c7.2 0 12.8-5.6 12.8-12.8v-37.6H349.6V796z m636.8-37.6H749.6V796c0 48-39.2 87.2-87.2 87.2h-300c-48 0-87.2-39.2-87.2-87.2v-37.6H37.6C16.8 758.4 0 741.6 0 720.8s16.8-37.6 37.6-37.6h112v-661.6c0-76 61.6-137.6 137.6-137.6h449.6c76 0 137.6 61.6 137.6 137.6V684h112c20.8 0 37.6 16.8 37.6 37.6s-16.8 36.8-37.6 36.8zM512 72c20.8 0 37.6 16.8 37.6 37.6v400c0 20.8-16.8 37.6-37.6 37.6s-37.6-16.8-37.6-37.6v-400c0-20.8 16.8-37.6 37.6-37.6m-175.2 0c20.8 0 37.6 16.8 37.6 37.6v400c0 20.8-16.8 37.6-37.6 37.6s-37.6-16.8-37.6-37.6v-400c0.8-20.8 17.6-37.6 37.6-37.6m350.4 0c20.8 0 37.6 16.8 37.6 37.6v400c0 20.8-16.8 37.6-37.6 37.6s-37.6-16.8-37.6-37.6v-400c0-20.8 16.8-37.6 37.6-37.6"  horiz-adv-x="1024" />

    
    <glyph glyph-name="split_16" unicode="&#59414;" d="M1143.954286 138.24v222.354286h318.902857v-222.354286H1143.954286z m-389.12 222.354286h345.234285v-222.354286H754.834286v222.354286z m0 266.24h345.234285v-222.354286H754.834286V626.834286z m-377.417143-266.24h333.531428v-222.354286H377.417143v222.354286z m0 266.24h333.531428v-222.354286H377.417143V626.834286z m766.537143 0h318.902857v-222.354286H1143.954286V626.834286z m0 269.165714h318.902857v-225.28H1143.954286V896zM754.834286 670.72V896h345.234285v-225.28H754.834286z m-377.417143 0V896h333.531428v-225.28H377.417143zM0 670.72V896h333.531429v-225.28H0z m333.531429-266.24H0V626.834286h333.531429v-222.354286z m0-266.24H0v222.354286h333.531429v-222.354286z m0-266.24H0v222.354286h333.531429v-222.354286z m377.417142 222.354286v-222.354286H377.417143v222.354286h333.531428z m389.12 0v-222.354286H754.834286v222.354286h345.234285z m362.788572 0v-222.354286H1143.954286v222.354286h318.902857z m0 0v43.885714m-362.788572-266.24h43.885715m-433.005715 0h43.885715m-421.302857 0h43.885714M0 138.24v-43.885714m0 310.125714v-43.885714M0 670.72v-43.885714M377.417143 896h-43.885714m421.302857 0h-43.885715m433.005715 0h-43.885715m362.788572-269.165714V670.72m0-310.125714v43.885714"  horiz-adv-x="1462" />

    
    <glyph glyph-name="split_10_1" unicode="&#59415;" d="M1143.954 138.24V360.59400000000005h318.903V138.24h-318.903z m-389.12 222.354h345.235V138.24H754.834V360.59400000000005z m-377.417 0H710.95V138.24H377.417V360.59400000000005z m377.417 43.886V896h708.023v-491.52H754.834zM0 404.48V896h710.949v-491.52H0z m333.531-266.24H0V360.59400000000005h333.531V138.24z m0-266.24H0V94.35400000000004h333.531V-128zM710.95 94.35400000000004V-128H377.417V94.35400000000004H710.95z m389.12 0V-128H754.834V94.35400000000004h345.235z m362.788 0V-128h-318.903V94.35400000000004h318.903z m0 0V138.24M1100.07-128h43.885m-433.005 0h43.885m-421.303 0h43.886M0 138.24v-43.886m0 266.24V404.48m1462.857-43.886"  horiz-adv-x="1462" />

    
    <glyph glyph-name="split_25" unicode="&#59416;" d="M904.496081 296.476394V472.397244h246.069504v-175.922065H904.496081zM604.242781 472.397244h266.389187v-175.922065H604.242781V472.397244z m0 210.64402h266.389187v-175.922065H604.242781V683.041264zM313.021126 472.397244h257.357542v-175.922065H313.021126V472.397244z m0 210.64402h257.357542v-175.922065H313.021126V683.041264z m591.474955 0h246.069504v-175.922065H904.496081V683.041264z m0 212.958736h246.069504v-178.23678H904.496081V896zM604.242781 717.76322V896h266.389187v-178.23678H604.242781z m-291.221655 0V896h257.357542v-178.23678H313.021126z m-291.221655 0V896h257.357542v-178.23678H21.799471z m257.357542-210.644021H21.799471V683.041264h257.357542v-175.922065z m0-210.642805H21.799471V472.397244h257.357542v-175.92085z m0-210.645235H21.799471V261.75443900000005h257.357542v-175.92328z m291.22287 175.92328v-175.922065H313.021126V261.75443900000005h257.358757z m300.252085 0v-175.922065H604.242781V261.75443900000005h266.389187z m279.933617 0v-175.922065H904.496081V261.75443900000005h246.069504z m0 0v34.721955m-279.933617-210.645235h33.864113m-334.116198 0h33.864113m-325.086983 0h33.864113M21.799471 296.476394v-34.721955m0 245.36476v-34.721955m0 245.365976v-34.721956M313.021126 896h-33.864113m325.085768 0h-33.864113m334.117413 0h-33.864113m279.933617-212.958736v34.721956m0-245.365976v34.721955M21.799471 896h257.357542v-178.23678H21.799471zM1186.423635 896h257.358757v-178.235565H1186.423635zM1186.423635 684.848079h257.358757v-178.235565H1186.423635zM1186.423635 472.229564h257.358757v-178.236781H1186.423635zM1186.423635 263.07886900000005h257.358757v-178.23678H1186.423635zM21.799471 261.75443900000005h257.357542v-175.922065H21.799471zM21.799471 47.92206399999998h257.358757v-175.922064H21.799471zM316.470722 47.92206399999998h257.358756v-175.922064H316.470722zM605.154087 47.92206399999998h257.358756v-175.922064H605.154087zM899.677098 47.92206399999998h257.358756v-175.922064H899.677098zM1186.423635 47.92327899999998h257.358757v-175.922064H1186.423635z"  horiz-adv-x="1513" />

    
    <glyph glyph-name="split_36" unicode="&#59419;" d="M741.337308 399.523278V545.207264h200.028142V399.523278H741.337308zM497.261519 545.207264h216.546764V399.523278H497.261519V545.207264z m0 174.437865h216.546764v-145.683986H497.261519V719.645129zM260.528817 545.207264H469.733702V399.523278H260.528817V545.207264z m0 174.437865H469.733702v-145.683986H260.528817V719.645129z m480.808491 0h200.028142v-145.683986H741.337308V719.645129z m0 176.354871h200.028142V748.400216H741.337308V896zM497.261519 748.400216V896h216.546764V748.400216H497.261519z m-236.732702 0V896H469.733702V748.400216H260.528817z m-236.732703 0V896h209.204886V748.400216H23.796114z m209.204886-174.439073H23.796114V719.645129h209.204886v-145.683986z m0-174.437865H23.796114V545.207264h209.204886V399.523278z m0-174.439074H23.796114V370.769398h209.204886V225.084204z m236.732702 145.685194V225.084204H260.528817V370.769398H469.733702z m244.074581 0V225.084204H497.261519V370.769398h216.546764z m227.555959 0V225.084204H741.337308V370.769398h200.026934z m0 0V399.523278M713.808283 225.084204h27.529025m-271.603606 0h27.527817m-264.260519 0h27.529025M23.796114 399.523278v-28.75388m0 203.191745v-28.753879m0 203.192952v-28.753879M260.528817 896h-27.529025m264.261727 0H469.733702m271.603606 0h-27.529025m227.555959-176.354871V748.400216m0-203.192952v28.753879M23.796114 896h209.204886V748.400216H23.796114zM970.514326 896h209.204886V748.400216H970.514326zM970.514326 721.1417710000001h209.204886v-147.599784H970.514326zM970.514326 545.06835h209.204886v-147.600992H970.514326zM970.514326 371.86741900000004h209.204886v-147.600992H970.514326zM23.796114 370.769398h209.204886v-145.683986H23.796114zM23.796114 193.690969h209.204886v-145.683986H23.796114zM263.332453 193.690969H472.537339v-145.683986H263.332453zM498.001989 193.690969h209.204885v-145.683986H498.001989zM737.418741 193.690969h209.204885v-145.683986H737.418741zM970.514326 193.69217700000002h209.204886v-145.683986H970.514326zM1208.028568 896h209.204886V748.400216H1208.028568zM1208.028568 721.1417710000001h209.204886v-147.600992H1208.028568zM1208.028568 545.06835h209.204886v-147.600992H1208.028568zM1208.028568 371.86741900000004h209.204886v-147.600992H1208.028568zM1208.028568 194.650076h209.204886v-147.599784H1208.028568zM23.794906 19.59857599999998h209.204886v-147.599784h-209.204886zM263.332453 19.59857599999998H472.537339v-147.599784H263.332453zM498.001989 19.59857599999998h209.204885v-147.599784H498.001989zM737.418741 19.59857599999998h209.204885v-147.599784H737.418741zM970.514326 19.59857599999998h209.204886v-147.599784H970.514326zM1208.028568 19.59857599999998h209.204886v-147.599784H1208.028568z"  horiz-adv-x="1491" />

    
    <glyph glyph-name="fangda" unicode="&#59134;" d="M852.68743-70.232318 171.311547-70.232318c-62.714867 0-113.562988 50.846038-113.562988 113.558335L57.748558 724.675006c0 62.712297 50.848122 113.558335 113.562988 113.558335l681.376907 0c62.714867 0 113.562988-50.846038 113.562988-113.558335l0-681.348989C966.250418-19.38628 915.40332-70.232318 852.68743-70.232318zM909.469948 724.675006c0 31.356149-25.424061 56.779168-56.781494 56.779168L171.311547 781.454174c-31.357433 0-56.781494-25.423019-56.781494-56.779168l0-681.348989c0-31.357172 25.424061-56.779168 56.781494-56.779168l681.376907 0c31.358457 0 56.781494 25.423019 56.781494 56.779168L909.469948 724.675006zM824.297706 412.389584c-15.665413 0-28.390747 12.697183-28.390747 28.389584l0.887243 186.638771L604.102866 434.735521l-40.145947 40.144302 193.023924 193.016015L568.782006 667.895839c-15.693044 0-28.390747 12.697183-28.390747 28.389584s12.697704 28.389584 28.390747 28.389584l254.711349 0c7.929925 0 15.082105-3.27151 20.238756-8.53949 5.490263-4.657067 8.955319-11.449773 8.955319-19.850094l0-255.506255C852.68743 425.086767 839.989727 412.389584 824.297706 412.389584zM455.219017 43.326017 200.506645 43.326017c-7.929925 0-15.082105 3.270487-20.239779 8.538467-5.489239 4.65809-8.955319 11.423167-8.955319 19.850094L171.311547 327.220832c0 15.692401 12.726357 28.389584 28.390747 28.389584 15.69202 0 28.390747-12.697183 28.390747-28.389584l-0.887243-186.6664 192.690312 192.710047 40.173577-40.143279-193.050531-193.016015 188.198837 0c15.69202 0 28.390747-12.697183 28.390747-28.389584C483.608741 56.0232 470.911038 43.326017 455.219017 43.326017z"  horiz-adv-x="1024" />

    
    <glyph glyph-name="hdmi" unicode="&#59136;" d="M667.152 616.727V864.97H356.848v-248.243h-31.03V896h372.364v-279.273h-31.03zM449.939-3.879000000000019h31.03V-128h-31.03V-3.879000000000019z m93.091 0h31.03V-128h-31.03V-3.879000000000019z m155.152 124.121H325.818a62.06 62.06 0 0 0-62.06 62.061V554.6669999999999a62.06 62.06 0 0 0 62.06 62.06h372.364a62.06 62.06 0 0 0 62.06-62.06v-372.364a62.06 62.06 0 0 0-62.06-62.06z m31.03 418.91a42 42 0 0 1-46.545 46.545H341.333a42 42 0 0 1-46.545-46.545v-341.334a42 42 0 0 1 46.545-46.545h341.334a42 42 0 0 1 46.545 46.545V539.152z m-294.788-418.91v-62.06c0-23.987 3.274-31.03 15.515-31.03h124.122c12.241 0 15.515 7.043 15.515 31.03v62.06h31.03v-93.09a31.03 31.03 0 0 0-31.03-31.03H434.424a31.03 31.03 0 0 0-31.03 31.03v93.09m31.03 667.152h31.03v-62.06h-31.03v62.06z m124.121 0h31.03v-62.06h-31.03v62.06z"  horiz-adv-x="1024" />

    
    <glyph glyph-name="cha" unicode="&#59129;" d="M511.468308-107.106462C240.246154-107.106462 19.554462 113.329231 19.554462 384.275692S240.246154 875.677538 511.468308 875.677538s491.913846-220.435692 491.913846-491.401846-220.672-491.382154-491.913846-491.382154z m0 938.121847c-246.567385 0-447.212308-200.408615-447.212308-446.739693s200.625231-446.72 447.212308-446.72 447.212308 200.388923 447.212307 446.72S758.153846 831.015385 511.468308 831.015385z m0 0M702.877538 224.492308l-3.131076 3.131077c-0.669538 0.669538-1.358769 1.122462-1.792 1.575384l-154.95877 155.017846 157.184 157.026462c0.452923 0.216615 0.669538 0.669538 1.10277 0.886154a10.535385 10.535385 0 0 0 1.575384 1.575384 22.331077 22.331077 0 0 1-0.669538 29.046154l-1.969231 1.969231a22.882462 22.882462 0 0 1-27.273846 1.969231 10.574769 10.574769 0 0 1-1.575385-1.575385l-2.678154-2.461538-157.184-157.026462-157.203692 157.026462-2.461538 2.461538c-0.669538 0.669538-1.358769 1.122462-1.792 1.575385a22.882462 22.882462 0 0 1-27.273847-1.969231l-1.96923-1.969231a22.075077 22.075077 0 0 1-0.433231-29.046154c0.433231-0.433231 0.886154-1.102769 1.358769-1.575384s0.669538-0.669538 1.102769-0.886154l157.184-157.026462L321.851077 226.461538a22.429538 22.429538 0 0 1 29.952-33.299692 6055.995077 6055.995077 0 0 1 3.150769 3.150769l156.514462 156.553847L669.538462 194.953846a22.370462 22.370462 0 0 1 38.242461 15.635692 24.615385 24.615385 0 0 1-3.584 12.504616c-0.452923 0.472615-0.886154 1.122462-1.319385 1.575384z m0 0"  horiz-adv-x="1024" />

    
    <glyph glyph-name="qiuji" unicode="&#59131;" d="M512.00625 514.514216a86.192761 86.192761 0 1 0-86.255264-86.192761 86.255265 86.255265 0 0 0 86.255264 86.192761m0 68.754196a155.009461 155.009461 0 1 1 155.009461-155.009461 155.009461 155.009461 0 0 1-155.009461 155.009461zM512.00625 896C253.715486 896 44.327706 686.61222 44.327706 428.321455s209.412782-467.666044 467.678544-467.666044 467.666044 209.375279 467.666044 467.666044S770.297015 896 512.00625 896z m0-77.66724a42.140072 42.140072 0 1 0-42.140072-42.140072 42.127571 42.127571 0 0 0 42.140072 42.140072z m0-616.887652a226.888848 226.888848 0 1 0 226.876348 226.876347 226.876347 226.876347 0 0 0-226.876348-226.876347zM512.00625-98.323189a524.156992 524.156992 0 0 0-273.354184 76.417164l-106.081475-106.093975h758.871318l-106.093975 106.093975a524.081987 524.081987 0 0 0-273.341684-76.417164z"  horiz-adv-x="1024" />

    
    <glyph glyph-name="zhuxiao" unicode="&#59128;" d="M674.2016 652.8l224.6656-256.2048-224.6656-256.2048c-8.8064-10.0352-21.0944-15.1552-33.3824-15.1552-10.5472 0-21.1968 3.7888-29.5936 11.4688-18.432 16.5888-20.0704 45.1584-3.6864 63.7952l132.3008 150.8352H318.464v90.4192h421.2736L607.4368 592.6912c-16.384 18.6368-14.7456 47.3088 3.6864 63.7952 18.432 16.6912 46.6944 14.9504 63.0784-3.6864z m-459.776-587.9808h213.1968c24.6784 0 44.6464-20.1728 44.6464-45.2608 0-24.9856-19.968-45.2608-44.6464-45.2608H125.1328V698.1632c0 52.6336 42.2912 95.4368 94.208 95.4368h208.2816c24.6784 0 44.6464-20.1728 44.6464-45.2608 0-24.9856-19.968-45.2608-44.6464-45.2608H219.3408c-2.7648 0-4.9152-2.2528-4.9152-5.0176v-633.2416z"  horiz-adv-x="1024" />

    
    <glyph glyph-name="Question" unicode="&#59127;" d="M409.6 179.20000000000005h563.2a51.2 51.2 0 0 0 46.336-29.44A127.744 127.744 0 0 1 972.8 51.200000000000045c0-39.68 18.0224-75.1104 46.336-98.56A51.2 51.2 0 0 0 972.8-76.79999999999995H76.8A76.8 76.8 0 0 0 0 0v102.4A76.8 76.8 0 0 0 76.8 179.20000000000005H153.6v-204.8l128 128L409.6-25.600000000000023v204.8z m0 332.8h563.2a51.2 51.2 0 0 0 46.336-29.44A127.744 127.744 0 0 1 972.8 384c0-39.68 18.0224-75.1104 46.336-98.56A51.2 51.2 0 0 0 972.8 256H409.6v256z m-256 0v-256H76.8A76.8 76.8 0 0 0 0 332.79999999999995V435.2a76.8 76.8 0 0 0 76.8 76.8H153.6zM153.6 588.8H76.8A76.8 76.8 0 0 0 0 665.6v102.4A76.8 76.8 0 0 0 76.8 844.8H972.8a51.2 51.2 0 0 0 46.336-29.44A127.744 127.744 0 0 1 972.8 716.8c0-39.68 18.0224-75.1104 46.336-98.56A51.2 51.2 0 0 0 972.8 588.8H409.6V716.8A76.8 76.8 0 0 1 332.8 793.6h-102.4A76.8 76.8 0 0 1 153.6 716.8V588.8z m204.8 128v-618.8032l-76.8 76.8-76.8-76.8V716.8a25.6 25.6 0 0 0 25.6 25.6h102.4a25.6 25.6 0 0 0 25.6-25.6z"  horiz-adv-x="1024" />

    
    <glyph glyph-name="Distribution_1" unicode="&#59125;" d="M676.693333 248.746667a21.333333 21.333333 0 0 1-30.165333 0.128l-0.128-0.128L554.666667 158.29333299999996V490.666667a21.333333 21.333333 0 0 1-42.666667 0v-335.36l-91.733333 93.44a21.418667 21.418667 0 0 1-30.293334-30.293334l128-128a21.333333 21.333333 0 0 1 30.165334-0.128l0.128 0.128 128 128a21.333333 21.333333 0 0 1 0.554666 30.165334l-0.128 0.128zM256 426.666667h170.666667v-42.666667H256v42.666667z m0 85.333333h170.666667v-42.666667H256V512z m0 85.333333h512v-42.666666H256V597.333333zM853.333333 640v-298.666667a42.666667 42.666667 0 0 0-42.666666-42.666666h-85.333334v42.666666h85.333334V640H213.333333v-298.666667h128v-42.666666H213.333333a42.666667 42.666667 0 0 0-42.666666 42.666666V640a42.666667 42.666667 0 0 0 42.666666 42.666667h597.333334a42.666667 42.666667 0 0 0 42.666666-42.666667z"  horiz-adv-x="1024" />

    
    <glyph glyph-name="Distribution_2" unicode="&#59126;" d="M861.228426 426.645471a33.912899 33.912899 0 0 1 0-67.825799A107.503891 107.503891 0 0 0 966.527979 249.45057099999997v-200.086107a107.673456 107.673456 0 0 0-105.299553-109.538665H173.135695A107.673456 107.673456 0 0 0 67.836142 49.364464v200.086107a107.503891 107.503891 0 0 0 105.299553 109.369101 33.912899 33.912899 0 0 1 0 67.825799A175.499255 175.499255 0 0 1 0.010343 249.45057099999997v-200.086107a175.499255 175.499255 0 0 1 173.125352-177.364464h688.092731A175.499255 175.499255 0 0 1 1034.353778 49.364464v200.086107a175.499255 175.499255 0 0 1-173.125352 177.1949zM841.050251 557.718828H656.055384V896H378.478302v-338.281172H193.313871l323.86819-323.86819 323.86819 323.86819zM154.82273 153.47706600000004v-100.551747a33.912899 33.912899 0 0 1 67.825799 0v100.551747a33.912899 33.912899 0 0 1-67.825799 0zM281.996103 153.47706600000004v-100.551747a33.912899 33.912899 0 1 1 67.825799 0v100.551747a33.912899 33.912899 0 0 1-67.825799 0zM409.169476 153.47706600000004v-100.551747a33.912899 33.912899 0 0 1 67.825799 0v100.551747a33.912899 33.912899 0 0 1-67.825799 0zM536.173284 187.55953m36.625932 0l236.203345 0q36.625931 0 36.625931-36.625932l0-94.27786q0-36.625931-36.625931-36.625932l-236.203345 0q-36.625931 0-36.625932 36.625932l0 94.27786q0 36.625931 36.625932 36.625932Z"  horiz-adv-x="1034" />

    
    <glyph glyph-name="Host" unicode="&#59124;" d="M558.545455 840.145455L167.563636 609.8385450000001 558.545455 411.927273l390.981818 197.911272L558.545455 840.145455z m409.6-279.272728L595.781818 372.62429099999997V188.509091l372.363637 203.422254V560.8727269999999z m0-242.036363L595.781818 116.69876399999998V-53.52727300000004l372.363637 212.7872V318.836364z m-446.836364 51.944727L148.945455 560.8727269999999v-170.523927L521.309091 188.509091v182.272z m-111.709091-87.579927c-20.051782 3.593309-37.236364 28.765091-37.236364 53.936872 0 25.171782 17.184582 43.138327 37.236364 35.951709 20.051782-7.186618 37.236364-28.765091 37.236364-53.936872 0-25.171782-17.184582-43.138327-37.236364-35.951709zM148.945455 318.836364v-159.576437L521.309091-53.52727300000004v170.226037L148.945455 318.836364z m260.654545-277.671564c-20.051782 3.593309-37.236364 28.765091-37.236364 53.936873 0 25.171782 17.184582 43.138327 37.236364 35.951709 20.051782-7.186618 37.236364-28.765091 37.236364-53.936873 0-25.171782-17.184582-43.138327-37.236364-35.951709z"  horiz-adv-x="1117" />

    
    <glyph glyph-name="Wall" unicode="&#59121;" d="M951.535383 896H71.964861c-39.780576 0-71.964861-32.184285-71.964861-71.964861v-685.665202c0-39.780576 32.184285-71.964861 71.964861-71.964861h879.570522c39.780576 0 71.964861 32.184285 71.964861 71.964861v685.665202c0 39.780576-32.184285 71.964861-71.964861 71.964861z m0-757.630063H71.964861v685.665202h879.570522v-685.665202zM859.580283-56.03513899999996H163.919961c-19.890288 0-35.98243-16.092143-35.98243-35.982431s16.092143-35.98243 35.98243-35.98243h695.660322c19.890288 0 35.98243 16.092143 35.982431 35.98243s-16.092143 35.98243-35.982431 35.982431zM390.709224 358.06266500000004H632.691069v-152.525525H390.709224zM110.546022 754.569058v-152.525525h241.981845V754.569058zM110.546022 556.265886V403.740361h241.981845V556.265886zM110.546022 358.06266500000004v-152.525525h241.981845V358.06266500000004zM390.709224 754.569058H632.691069v-152.525525H390.709224zM670.972377 754.569058h241.981845v-152.525525H670.972377zM390.709224 556.265886H632.691069V403.740361H390.709224zM670.972377 556.265886h241.981845V403.740361H670.972377zM670.972377 358.06266500000004h241.981845v-152.525525H670.972377z"  horiz-adv-x="1024" />

    
    <glyph glyph-name="TVWall" unicode="&#59122;" d="M979.84 124.79999999999995H44.16c-24.32 0-44.16 19.84-44.16 44.16V798.72C0 823.04 19.84 842.88 44.16 842.88h936.32c24.32 0 44.16-19.84 44.16-44.16v-629.76c-0.64-24.32-20.48-44.16-44.8-44.16zM68.48 193.27999999999997h887.68V774.4H68.48v-581.12zM160-6.399999999999977h700.16v-68.48H160zM350.72 506.88H142.72v211.2h208v-211.2z m-159.36 48.64h110.72V668.8H191.36v-113.28zM616.32 506.88H407.68v211.2h208v-211.2z m-159.36 48.64h110.72V668.8H456.96v-113.28zM881.28 506.88h-208v211.2h208v-211.2z m-159.36 48.64h110.72V668.8h-110.72v-113.28zM350.72 249.60000000000002H142.72V460.8h208v-211.2z m-159.36 48.64h110.72V412.16H191.36v-113.92zM616.32 249.60000000000002H407.68V460.8h208v-211.2z m-159.36 48.64h110.72V412.16H456.96v-113.92zM881.28 249.60000000000002h-208V460.8h208v-211.2z m-159.36 48.64h110.72V412.16h-110.72v-113.92z"  horiz-adv-x="1024" />

    
    <glyph glyph-name="Splicing" unicode="&#59123;" d="M76.8 739.2v-713.6h166.4V739.2H76.8zM54.4 800h208c22.4 0 38.4-19.2 38.4-38.4v-752c0-22.4-19.2-38.4-38.4-38.4H54.4c-22.4 0-38.4 19.2-38.4 38.4V761.6c0 19.2 19.2 38.4 38.4 38.4z m323.2-60.8v-713.6H640V739.2h-262.4zM358.4 800h300.8c22.4 0 38.4-19.2 38.4-38.4v-752c0-22.4-19.2-38.4-38.4-38.4h-300.8c-22.4 0-38.4 19.2-38.4 38.4V761.6c-3.2 19.2 16 38.4 38.4 38.4z m416-60.8v-713.6h166.4V739.2h-166.4zM755.2 800h208c22.4 0 38.4-19.2 38.4-38.4v-752c0-22.4-19.2-38.4-38.4-38.4h-208c-22.4 0-38.4 19.2-38.4 38.4V761.6c0 19.2 16 38.4 38.4 38.4z m-313.6-176c-3.2 9.6 0 22.4 9.6 25.6 9.6 3.2 22.4 0 25.6-9.6l128-278.4c3.2-9.6 0-22.4-9.6-25.6-9.6-3.2-22.4 0-25.6 9.6l-128 278.4z m-28.8-249.6c-3.2 9.6 0 22.4 9.6 25.6 9.6 3.2 22.4 0 25.6-9.6l128-278.4c3.2-9.6 0-22.4-9.6-25.6-9.6-3.2-22.4 0-25.6 9.6l-128 278.4z"  horiz-adv-x="1024" />

    
    <glyph glyph-name="PersonalData" unicode="&#59116;" d="M1204.14781 881.538063l-1079.600005 0C55.826239 881.538063 0 821.814764 0 748.227954l0-729.786552c0-73.586811 55.708256-133.305244 124.547806-133.305244L1204.14781-114.86384199999998c68.721567 0 124.547806 59.718434 124.547806 133.305244l0 729.786552C1328.695616 821.814764 1272.869377 881.538063 1204.14781 881.538063L1204.14781 881.538063 1204.14781 881.538063 1204.14781 881.538063zM1272.137158 18.44140200000004c0-31.135127-25.542529-73.462747-56.919702-73.462747L113.725071-55.021345c-31.50002 0-56.924567 42.328836-56.924567 73.462747L56.800504 748.3520169999999c0 31.139992 25.542529 71.396235 56.924567 71.396235l1101.493601 0c31.50002 0 56.919702-40.256243 56.919702-71.396235L1272.138374 18.44140200000004 1272.137158 18.44140200000004 1272.137158 18.44140200000004 1272.137158 18.44140200000004zM1078.017584 602.3947069999999l-225.01752 0c-12.529219 0-22.743798-9.364378-22.743798-21.043395l0-17.270399c0-11.679017 10.214579-21.043395 22.743798-21.043395l225.01752 0c12.647201 0 22.743798 9.364378 22.743798 21.043395l0 17.270399C1100.761382 593.0303289999999 1090.546803 602.3947069999999 1078.017584 602.3947069999999L1078.017584 602.3947069999999 1078.017584 602.3947069999999 1078.017584 602.3947069999999zM1078.017584 411.917985l-225.01752 0c-12.529219 0-22.743798-9.364378-22.743798-21.037314l0-15.085904c0-11.674152 10.214579-21.043395 22.743798-21.043395l225.01752 0c12.647201 0 22.743798 9.369243 22.743798 21.043395l0 15.085904C1100.761382 402.553607 1090.546803 411.917985 1078.017584 411.917985L1078.017584 411.917985 1078.017584 411.917985 1078.017584 411.917985zM1078.017584 224.12201100000004l-225.01752 0c-12.529219 0-22.743798-9.488441-22.743798-21.043395l0-13.74553c0-11.674152 10.214579-21.03853 22.743798-21.03853l225.01752 0c12.647201 0 22.743798 9.364378 22.743798 21.03853l0 13.74553C1100.761382 214.63356999999996 1090.546803 224.12201100000004 1078.017584 224.12201100000004L1078.017584 224.12201100000004 1078.017584 224.12201100000004 1078.017584 224.12201100000004zM434.589108 571.254715c56.558458 0 102.536227-45.971688 102.536227-102.530145 0-27.366996-13.627548-55.224165-37.463593-76.509606-20.06913-18.002618-28.217197-45.853705-20.43524-71.638281 7.781957-25.666593 29.557572-44.519412 56.074366-48.168345 2.308558-0.36611 29.799618-5.10729 55.218083-18.002618 11.797-5.957491 20.919332-12.647201 26.392731-19.214064 4.865244-5.839509 5.839509-10.338643 5.839509-15.32795l0-26.75884L246.302961 193.10486600000002l0 26.634777c0 5.112155 0 18.733621 31.990193 34.788925 25.300483 12.771265 52.543415 17.270399 54.851974 17.636508 26.75884 3.524869 48.534455 22.259706 56.558458 48.044281 8.030085 25.784575-0.117982 53.88379-20.311176 71.886408-23.836045 21.285441-37.463593 49.136529-37.463593 76.503524C332.052881 525.158964 378.03065 571.254715 434.589108 571.254715M432.522596 624.654413c-89.038825 0-161.161197-72.128454-161.161197-161.161197 0-47.802235 23.718063-90.739227 56.800504-120.296799 0 0-137.325152-19.336911-137.325152-113.47816l0-60.696348c0-13.863512 11.194926-25.053572 25.058438-25.053572l433.248733 0c13.869593 0 25.058438 11.188844 25.058438 25.053572l0 60.696348c0 93.166984-137.325152 113.47816-137.325152 113.47816 33.088522 29.557572 56.806585 72.494563 56.806585 120.296799C593.683792 552.5259590000001 521.555339 624.654413 432.522596 624.654413L432.522596 624.654413 432.522596 624.654413 432.522596 624.654413 432.522596 624.654413zM432.522596 624.654413"  horiz-adv-x="1329" />

    
    <glyph glyph-name="Portrait" unicode="&#59117;" d="M35.192489-126.72159799999997H31.996484a31.96005 31.96005 0 0 0-28.764045 34.516854 511.360799 511.360799 0 0 0 839.910113 333.02372 31.96005 31.96005 0 1 0-41.548065-48.579276A447.440699 447.440699 0 0 1 67.152539-99.23595499999999a31.96005 31.96005 0 0 0-31.96005-27.485643zM558.058906-126.72159799999997a31.96005 31.96005 0 0 0-17.897628 58.167291l430.821474 292.114856a31.96005 31.96005 0 0 0 35.795255-53.053683L578.513338-121.60798999999997a31.96005 31.96005 0 0 0-20.454432-5.113608zM981.849169-88.36953800000003m-38.35206 0a38.35206 38.35206 0 1 1 76.704119 0 38.35206 38.35206 0 1 1-76.704119 0ZM514.593238 320.719101a287.640449 287.640449 0 1 0 287.64045 287.64045A287.640449 287.640449 0 0 0 514.593238 320.719101z m0 511.360799a223.72035 223.72035 0 1 1 223.72035-223.720349A223.72035 223.72035 0 0 1 514.593238 832.0799z"  horiz-adv-x="1024" />

    
    <glyph glyph-name="BaseInfo" unicode="&#59118;" d="M637.4 654c0 19.7-19.4 35.8-43.6 35.8H213.1c-24.1 0-43.6-16-43.6-35.8 0-19.7 19.4-35.8 43.6-35.8h380.7c24 0.3 43.6 16.1 43.6 35.8zM463.8 483.8c0 19.7-12.1 35.8-27.3 35.8H197c-15.2 0-27.3-16-27.3-35.8 0-19.7 12.1-35.8 27.3-35.8h239.2c15.2 0.1 27.6 16.1 27.6 35.8z m0-170.3c0 19.7-12.1 35.8-27.3 35.8H197c-15.2 0-27.3-16-27.3-35.8 0-19.7 12.1-35.8 27.3-35.8h239.2c15.2-0.1 27.6 16 27.6 35.8zM94.2 8.5V760.1c0 35.6 28.9 64.5 64.5 64.5h646.5c35.6 0 64.5-28.9 64.5-64.5v-172.5c0-17.6 14.5-32.1 32.1-32.1s32.1 14.5 32.1 32.1v197C933.9 842 887.4 888.5 830 888.5H134C76.6 888.5 30.1 842 30.1 784.7v-801.4c0-57.3 46.5-103.9 103.9-103.9h293.6c17.6 0 32.1 14.5 32.1 32.1s-14.5 32.1-32.1 32.1H158.5c-35.6 0.4-64.3 29.3-64.3 64.9zM826.1 147.39999999999998c41.9 30.5 68.6 80.8 66.7 136.9-3 85.5-72.9 154.5-158.3 156.6-91.5 2.1-166.3-71.3-166.3-162.4 0-54.5 27.1-103 68.4-132.3-96.8-38.3-165.3-132.8-165.3-243.3v-0.5c0-7.3 6-13.5 13.5-13.5h24.3c7.5 0 13.7 6.2 13.7 13.7v0.2c0 115.8 94 209.8 209.8 209.8s209.8-94 209.8-209.8v-0.2c0-7.5 6.2-13.7 13.7-13.7h24.3c7.3 0 13.5 6 13.5 13.5v0.5c0.4 111.6-69.4 207.1-167.8 244.5zM724.7 391.3c66.9 3.4 121.8-51.6 118.6-118.6-3-57.3-49.6-103.9-106.7-106.7-66.9-3.4-121.8 51.6-118.6 118.6 2.8 57.3 49.4 103.8 106.7 106.7z"  horiz-adv-x="1024" />

    
    <glyph glyph-name="Security" unicode="&#59119;" d="M511.3 568.4c-32.7 0-65.3-30.4-65.3-66.5v-33.3h130.6v33.3c0 35.1-32.6 66.5-65.3 66.5z m0-166.3c-27.3 0-65.3-29.6-65.3-66.5 0-18.5 8.6-33.3 32.6-33.3v-66.5c0-24.1 19.1-33.3 32.7-33.3 13.5 0 32.6 8.1 32.6 33.3v66.5c23 0 32.7 7.4 32.7 33.3 0 51.5-37.9 66.5-65.3 66.5z m331.2 321.4c-7.9-0.3-15.6-0.4-23.2-0.4-199.4 0-287.2 89.3-288 90.1l-19.9 21.3-20-21.3c-0.8-0.9-86.9-90.1-287.9-90.1-7.6 0-15.3 0.1-23.2 0.4l-28 0.9v-405.1c0-106.1 36.2-260.8 349.4-379.1l9.8-3.7 9.8 3.7c313.1 118.4 349.4 273.1 349.4 379.1V724.4l-28.2-0.9zM707.2 169.29999999999995c0-22.3-10.6-33.3-32.6-33.3H348.1c-25.1 0-32.6 7.8-32.6 33.3V435.4c0 27.5 14.7 33.3 32.6 33.3h32.6c-1.1 5.4 0 33.3 0 33.3 0 68.9 63.3 133 130.6 133S642 570.8 642 501.9c0 0 0.6-30 0-33.3h32.6c22 0 32.6-10 32.6-33.3v-266z"  horiz-adv-x="1024" />

    
    <glyph glyph-name="Password" unicode="&#59120;" d="M986.098969 301.21786899999995c-23.325086 0-42.230928-18.905842-42.230928-42.225429V-43.35395200000005H188.853608V394.119588h261.242612c23.325086 0 42.230928 18.905842 42.230928 42.225429 0 23.318213-18.905842 42.224055-42.230928 42.224055h-64.743643V633.965636c2.357388 80.632302 57.393814 150.140206 135.336083 170.925086 77.942268 20.779381 160.281787-12.092096 202.475601-80.842612 11.661856-20.210309 37.499656-27.142268 57.709966-15.479038 20.210309 11.656357 27.142268 37.494158 15.48591 57.704468-61.318213 101.862543-182.630928 150.875601-297.498281 120.199312-114.868729-30.674914-195.591753-133.638488-197.965636-252.507216v-157.645361H188.28866c-44.958076-0.618557-81.077663-37.242612-81.072165-82.200687v-440.287286c0.918213-44.738144 37.457045-80.525086 82.200687-80.514089h757.270103c45.397938 0 82.200687 36.801375 82.200688 82.200687V258.99244a42.236426 42.236426 0 0 1-12.564949 30.057732 42.230928 42.230928 0 0 1-30.224055 12.167697z m0 0M1082.936082 867.620619A63.044674 63.044674 0 0 1 1037.896907 886.199313a63.624742 63.624742 0 0 1-45.044673-18.578694L517.660481 392.99244a41.631615 41.631615 0 0 1-5.627491-9.010309v-3.37732a40.013746 40.013746 0 0 1-4.504468-7.318213l-50.672165-189.175258a42.229553 42.229553 0 0 1 40.534708-52.92646h10.701031l189.175258 50.67079a41.036426 41.036426 0 0 1 17.450172 10.137457l476.885223 476.879725c24.984192 25.052921 24.984192 65.597251 0 90.646048l-108.666667 108.101719zM683.752577 280.94845399999997l-79.386941 79.386941L917.971134 673.940893l79.386942-79.386941L683.752577 280.94845399999997z m-130.059106-50.670791l12.951203 47.85567 35.47079-35.47079-48.421993-12.38488zM1057.039175 654.235052L977.652234 733.621993l59.681099 59.6811 79.386942-79.386942-59.6811-59.681099zM475.998625 12.386254000000008h184.670791a42.226804 42.226804 0 1 1 0 84.454983H475.998625c-23.325086 0-42.230928-18.905842-42.230927-42.230928 0-23.318213 18.905842-42.224055 42.230927-42.224055z m0 0"  horiz-adv-x="1610" />

    
    <glyph glyph-name="visible" unicode="&#59114;" d="M401.1 583.3m-193.8 0a193.8 193.8 0 1 1 387.6 0 193.8 193.8 0 1 1-387.6 0ZM738.9 62.799999999999955c0-169.3-675.5-169.3-675.5 0S214.6 334 401.1 334s337.8-101.9 337.8-271.2zM644.7 832.5c-47.2 0-90.4-16.9-124-44.9 75.3-36.5 127.4-113.5 127.4-202.9 0-50.8-17-97.5-45.3-135.2 13.5-3 27.4-4.6 41.8-4.6 107 0 193.8 86.8 193.8 193.8S751.8 832.5 644.7 832.5zM622.6 382.79999999999995c-20.4 0-83.1-6.1-104.2-16.1 131.8-26.8 275.1-129.3 275.1-293.1 0-25.6-10.4-48.2-28.7-67.9 110.1 18 195.5 58.2 195.5 120.6 0.1 175.4-151.2 256.5-337.7 256.5z"  horiz-adv-x="1024" />

    
    <glyph glyph-name="tupian" unicode="&#59109;" d="M886.491695 833.610044 137.507282 833.610044c-41.510416 0-75.117838-33.634028-75.117838-75.117838L62.389444 9.50677c0-41.509393 33.625842-75.116815 75.117838-75.116815l748.984413 0c41.510416 0 75.117838 33.635051 75.117838 75.116815L961.609533 758.492206C961.609533 800.002622 927.984714 833.610044 886.491695 833.610044zM774.272867 665.006022c41.381479 0 74.934666-33.552164 74.934666-74.93569 0-41.381479-33.552164-74.93569-74.934666-74.93569-41.382503 0-74.93569 33.553187-74.93569 74.93569C699.337177 631.453858 732.889341 665.006022 774.272867 665.006022zM842.986855 165.422819c-10.977006-10.966773-28.685319-11.066033-39.663348-0.090051L658.174686 310.47238l-96.212272-96.220459 72.080665-72.088852c10.994402-10.977006 11.06808-28.704762 0.01842-39.755446-10.977006-10.977006-28.704762-11.032264-39.754423 0.01842L334.870302 361.845421l-100.528578-100.538811c-10.940167-10.940167-28.631084-10.986215-39.680744 0.063445-10.978029 10.977006-10.867512 28.868491-0.055259 39.680744l119.335922 119.336946c5.835915 5.835915 13.592576 8.580422 21.239743 8.17724 7.445576 0.220011 14.984273-2.515287 20.72809-8.249895l166.299537-166.326143 110.205984 110.197798c6.989181 6.997368 16.758686 9.540284 25.777083 7.573489 8.982582 1.966795 18.715247-0.531096 25.740244-7.537673l159.127184-159.145603C854.0007 194.155211 854.037539 176.483736 842.986855 165.422819z"  horiz-adv-x="1024" />

    
    <glyph glyph-name="biaoqing" unicode="&#59111;" d="M969.624 432.901C942.77 685.37 716.11 868.143 463.37 841.143S27.502 587.588 54.377 335.09900000000005C81.23 82.63 307.89-100.14300000000003 560.65-73.14300000000003c252.719 27 435.847 253.576 408.973 506.044zM647.816 572.144c40.396 0 73.143-32.747 73.143-73.143 0-40.395-32.747-73.142-73.143-73.142S574.673 458.606 574.673 499c0 40.396 32.747 73.143 73.143 73.143z m-271.674 0c40.396 0 73.143-32.747 73.143-73.143 0-40.395-32.747-73.142-73.143-73.142S303 458.606 303 499c0 40.396 32.747 73.143 73.142 73.143z m361.326-312.842c-22.319-99.16-123.193-167.79-225.489-167.79-105.994 0-206.367 70.489-226.408 171.781 0 27.377 20.898 37.199 33.77 37.199h380.093c9.362-0.021 45.16-3.26 38.034-41.19z"  horiz-adv-x="1024" />

    
    <glyph glyph-name="hua" unicode="&#59115;" d="M412.032-6.144c-8.192 0-16.384 3.328-22.272 9.984-77.44 86.656-202.496 87.552-205.184 87.552h-0.128c-16.384 0-29.696 13.184-29.824 29.568-0.128 16.384 13.056 29.824 29.44 29.952 6.144 0.384 153.984 0.128 250.112-107.392 11.008-12.288 9.856-31.104-2.432-41.984-5.504-5.12-12.672-7.68-19.712-7.68z m199.552 0.128c-7.296 0-14.464 2.56-20.224 7.936-12.032 11.136-12.8 29.952-1.664 41.984C689.152 151.296 833.92 151.168 839.68 150.912c16.512-0.128 29.696-13.568 29.44-30.08-0.128-16.384-13.44-29.44-29.696-29.44h-0.256c-2.432 0-125.056-0.768-205.824-87.936-5.76-6.272-13.824-9.472-21.76-9.472z m-52.48 151.296h-94.336c-2.944 0-5.888 0.384-8.704 1.28-100.608 12.928-186.24 71.296-241.28 164.992-64 108.8-78.72 249.728-36.48 350.72 4.608 10.88 15.104 18.048 26.88 18.304l8.96 0.128c56.704 0 109.568-10.752 157.824-31.872 34.816 63.616 74.496 111.872 118.4 143.872 2.304 2.048 4.992 3.712 7.936 4.992 9.216 3.968 19.84 3.072 28.288-2.304 1.408-0.896 2.816-2.048 4.096-3.2 43.904-32.256 82.56-79.872 117.632-144.768 49.152 22.144 103.296 33.408 161.408 33.408l9.088-0.128c11.776-0.256 22.272-7.424 26.88-18.304 42.24-100.992 27.52-241.92-36.48-350.72-55.168-93.568-140.672-152.064-241.28-164.992-2.816-0.896-5.76-1.408-8.832-1.408zM511.744-32c-16.384 0-29.696 13.312-29.696 29.696V175.104c0 16.512 13.312 29.696 29.696 29.696s29.696-13.312 29.696-29.696v-177.28c0-16.512-13.312-29.824-29.696-29.824z m0 0"  horiz-adv-x="1024" />

    
    <glyph glyph-name="dianzan" unicode="&#59106;" d="M936.24990606 485.09923214L665.56644238 485.09923214c104.88668387 387.37260658-72.26779421 407.15747214-72.2677942 407.15747215-75.08538823 0-59.51992718-59.37206158-65.19819378-69.26973384 0-189.4424485-201.21579975-337.88773831-201.21579975-337.88773831l0-537.22669397c0-53.02898233 72.26779421-72.12807851 100.61721372-72.12807851l406.70106852 0c38.27619954 0 69.44554325 100.37969806 69.44554325 100.37969807 100.61837881 342.13625173 100.61837881 443.93522517 100.61837881 443.93522517C1004.2680229 490.74722702 936.24990606 485.09923214 936.24990606 485.09923214L936.24990606 485.09923214 936.24990606 485.09923214zM936.24990606 485.09923214M215.80392107 484.92109483L53.72007765 484.92109483c-33.47348253 0-33.98926563-32.8773632-33.98926563-32.8773632l33.47348252-541.8128532c0-34.48525483 34.54463431-34.48525483 34.54463431-34.48525482L228.03367595-124.25437638999995c29.22497024 0 28.96649671 22.81203257 28.96649671 22.81203257L257.00017266 443.83428722C257.00017266 485.44735687 215.80392107 484.92109483 215.80392107 484.92109483L215.80392107 484.92109483 215.80392107 484.92109483zM215.80392107 484.92109483"  horiz-adv-x="1024" />

    
    <glyph glyph-name="nozan" unicode="&#59107;" d="M1023.219 397.198c0.379-4.71 0.028-9.552-1.249-14.378L929.884-23.639999999999986c-1.293-4.87-3.424-9.29-6.126-13.221-9.863-19.692-24.86-37.108-44.798-49.79-21.006-13.35-44.464-19.584-67.638-19.541l0 0.255-591.504 0.248c-2.067-0.307-4.161-0.515-6.316-0.515-2.161 0-4.263 0.208-6.346 0.523l-157.335 0.066c-2.212-0.355-4.462-0.588-6.775-0.588-23.54 0-42.616 19.078-42.616 42.613l0.387 511.61c0 23.538 19.084 42.615 42.624 42.615 1.759 0 3.482-0.137 5.189-0.351l141.427 0.329 0 0.804c130.127 9.314 233.238 115.991 236.918 247.598-0.328 3.703-0.563 7.425-0.563 11.214 0 68.468 55.501 123.977 123.977 123.977 58.84 0 107.996-41.031 120.693-96.008l0.627 0.081c6.979-31.387 10.784-63.969 10.784-97.452 0-51.626-8.814-101.178-24.941-147.291l237.867-0.257c2.19 0 4.328-0.218 6.432-0.541 40.615-1.596 79.732-22.509 102.774-59.648C1019.283 449.472 1025.13 422.934 1023.219 397.198M85.7-20.403999999999996l85.224-0.036 0.321 425.779-85.144-0.19L85.7-20.403999999999996 85.7-20.403999999999996zM932.695 428.562c-8.192 13.209-22.662 20.152-37.164 19.37l0 0.126c-0.035 0-0.074 0-0.108 0l-300.67 0.312c-23.531 0-42.614 19.086-42.614 42.623 0 6.775 1.628 13.163 4.445 18.851l-0.453 0.373c17.025 31.694 29.409 66.243 36.431 102.689l0.533-0.014c0 0 5.667 23.012 5.593 67.148-0.059 34.964-6.432 66.884-6.432 66.884l-0.321 0c0.028 0.621 0.096 1.226 0.096 1.854 0 22.004-17.845 39.848-39.849 39.848-22.015 0-39.858-17.843-39.858-39.848 0-0.92 0.081-1.826 0.139-2.731l-0.556-0.008c0 0 0.679-33.271-5.964-67.775-2.821-14.638-6.783-28.289-10.392-39.102-0.074 0.035-0.137 0.065-0.21 0.101-35.868-109.66-126.06-194.665-238.779-223.299l-0.408-436.435 555.37-0.226c1.876 0 3.71-0.161 5.52-0.406 5.542 0.738 11.018 2.652 16.048 5.851 7.14 4.535 12.323 10.971 15.361 18.232l0.11-0.062 88.662 391.339-0.343 0.102C940.425 405.426 939.301 417.912 932.695 428.562"  horiz-adv-x="1024" />

    
    </font>
</defs>
</svg>
